<?xml version="1.0" encoding="UTF-8"?>
<svg xmlns="http://www.w3.org/2000/svg" xmlns:xlink="http://www.w3.org/1999/xlink" viewBox="0 0 467.44 255.2" preserveAspectRatio="xMidYMid meet">
  <defs>
    <style>
      .cls-1 {
        fill: #a5a896;
      }

      .cls-2 {
        fill: url(#radial-gradient-4);
      }

      .cls-2, .cls-3, .cls-4, .cls-5, .cls-6 {
        mix-blend-mode: screen;
      }

      .cls-3 {
        fill: url(#radial-gradient-5);
      }

      .cls-4 {
        fill: url(#radial-gradient-3);
      }

      .cls-5 {
        fill: url(#radial-gradient-2);
      }

      .cls-7 {
        fill: url(#Gradient_2-3);
      }

      .cls-8 {
        fill: url(#Gradient_2-7);
      }

      .cls-9 {
        fill: url(#Gradient_2-5);
      }

      .cls-10 {
        fill: url(#Gradient_2-2);
      }

      .cls-11 {
        fill: url(#Gradient_2-4);
      }

      .cls-12 {
        fill: url(#Gradient_2-6);
      }

      .cls-13 {
        fill: url(#Gradient_2-9);
      }

      .cls-14 {
        fill: url(#Gradient_2-8);
      }

      .cls-15 {
        fill: url(#linear-gradient-8);
      }

      .cls-16 {
        fill: url(#linear-gradient-7);
      }

      .cls-17 {
        fill: url(#linear-gradient-5);
      }

      .cls-18 {
        fill: url(#linear-gradient-6);
      }

      .cls-19 {
        fill: url(#linear-gradient-9);
      }

      .cls-20 {
        fill: url(#linear-gradient-4);
      }

      .cls-21 {
        fill: url(#linear-gradient-3);
      }

      .cls-22 {
        fill: url(#linear-gradient-2);
      }

      .cls-23 {
        opacity: .3;
      }

      .cls-23, .cls-24 {
        fill: #307375;
      }

      .cls-23, .cls-24, .cls-25 {
        mix-blend-mode: multiply;
      }

      .cls-24, .cls-25, .cls-26 {
        opacity: .5;
      }

      .cls-27 {
        fill: url(#linear-gradient);
      }

      .cls-28 {
        fill: #5c6244;
      }

      .cls-29 {
        isolation: isolate;
      }

      .cls-6 {
        fill: url(#radial-gradient);
      }

      .cls-30 {
        fill: #384820;
      }

      .cls-25 {
        fill: #385faa;
      }

      .cls-31 {
        fill: #404d2c;
      }

      .cls-32 {
        fill: #0e1a12;
      }

      .cls-33 {
        fill: #6fc8e0;
      }

      .cls-34 {
        fill: url(#linear-gradient-10);
      }

      .cls-35 {
        fill: url(#linear-gradient-11);
      }

      .cls-36 {
        fill: url(#linear-gradient-12);
      }

      .cls-37 {
        fill: url(#linear-gradient-13);
      }

      .cls-38 {
        fill: url(#linear-gradient-14);
      }

      .cls-39 {
        fill: url(#linear-gradient-15);
      }

      .cls-40 {
        fill: url(#linear-gradient-16);
      }

      .cls-41 {
        fill: url(#linear-gradient-17);
      }

      .cls-42 {
        fill: #6a7156;
      }

      .cls-43 {
        fill: url(#Gradient_2-15);
      }

      .cls-44 {
        fill: url(#Gradient_2-14);
      }

      .cls-45 {
        fill: url(#Gradient_2-11);
      }

      .cls-46 {
        fill: url(#Gradient_2-10);
      }

      .cls-47 {
        fill: url(#Gradient_2-13);
      }

      .cls-48 {
        fill: url(#Gradient_2-12);
      }

      .cls-49 {
        fill: url(#Gradient_2-17);
      }

      .cls-50 {
        fill: url(#Gradient_2-16);
      }

      .cls-51 {
        fill: url(#Gradient_2-18);
      }

      .cls-52 {
        fill: #4e5535;
      }

      .cls-53, .cls-26 {
        mix-blend-mode: soft-light;
      }

      .cls-54 {
        fill: #122116;
      }

      .cls-55 {
        fill: url(#Gradient_2);
      }

      .cls-26 {
        fill: #ffdb16;
      }
    </style>
    <linearGradient id="Gradient_2" data-name="Gradient 2" x1="133.72" y1="127.21" x2="133.72" y2="26.57" gradientUnits="userSpaceOnUse">
      <stop offset="0" stop-color="#1a331d"/>
      <stop offset="1" stop-color="#38452b"/>
    </linearGradient>
    <linearGradient id="Gradient_2-2" data-name="Gradient 2" x1="318.48" y1="127.21" x2="318.48" y2="26.57" gradientTransform="translate(651.25) rotate(-180) scale(1 -1)" xlink:href="#Gradient_2"/>
    <linearGradient id="Gradient_2-3" data-name="Gradient 2" y1="207.67" y2="107.02" gradientTransform="translate(0 334.88) scale(1 -1)" xlink:href="#Gradient_2"/>
    <linearGradient id="Gradient_2-4" data-name="Gradient 2" x1="318.48" y1="207.67" x2="318.48" y2="107.02" gradientTransform="translate(651.25 334.88) rotate(-180)" xlink:href="#Gradient_2"/>
    <linearGradient id="Gradient_2-5" data-name="Gradient 2" x1="127.97" y1="255.2" x2="127.97" y2="215.92" xlink:href="#Gradient_2"/>
    <linearGradient id="Gradient_2-6" data-name="Gradient 2" x1="524.52" y1="255.2" x2="524.52" y2="215.92" gradientTransform="translate(863.04) rotate(-180) scale(1 -1)" xlink:href="#Gradient_2"/>
    <linearGradient id="Gradient_2-7" data-name="Gradient 2" x1="28.3" y1="216.82" x2="28.3" y2="141.75" xlink:href="#Gradient_2"/>
    <linearGradient id="Gradient_2-8" data-name="Gradient 2" x1="81.32" y1="26.9" x2="81.32" y2="20.08" xlink:href="#Gradient_2"/>
    <linearGradient id="Gradient_2-9" data-name="Gradient 2" x1="28.3" y1="65.49" x2="28.3" y2="3.26" xlink:href="#Gradient_2"/>
    <linearGradient id="Gradient_2-10" data-name="Gradient 2" x1="26.95" y1="97.99" x2="26.95" y2="36.05" xlink:href="#Gradient_2"/>
    <linearGradient id="linear-gradient" x1="29.65" y1="205.45" x2="29.65" y2="157.21" gradientUnits="userSpaceOnUse">
      <stop offset="0" stop-color="#77cadf"/>
      <stop offset="1" stop-color="#4bbded"/>
    </linearGradient>
    <linearGradient id="linear-gradient-2" x1="112.59" y1="227.21" x2="112.59" y2="221.91" xlink:href="#linear-gradient"/>
    <linearGradient id="linear-gradient-3" x1="127.14" y1="227.21" x2="127.14" y2="221.99" xlink:href="#linear-gradient"/>
    <linearGradient id="linear-gradient-4" x1="233.16" y1="238.4" x2="233.16" y2="228.23" xlink:href="#linear-gradient"/>
    <linearGradient id="linear-gradient-5" x1="16.88" y1="46.33" x2="16.88" y2="16.95" xlink:href="#linear-gradient"/>
    <linearGradient id="Gradient_2-11" data-name="Gradient 2" x1="164.87" y1="26.97" x2="164.87" y2=".48" xlink:href="#Gradient_2"/>
    <linearGradient id="Gradient_2-12" data-name="Gradient 2" x1="384.03" y1="216.82" x2="384.03" y2="141.75" gradientTransform="translate(822.22) rotate(-180) scale(1 -1)" xlink:href="#Gradient_2"/>
    <linearGradient id="Gradient_2-13" data-name="Gradient 2" x1="437.05" y1="26.9" x2="437.05" y2="20.08" gradientTransform="translate(822.22) rotate(-180) scale(1 -1)" xlink:href="#Gradient_2"/>
    <linearGradient id="Gradient_2-14" data-name="Gradient 2" x1="384.03" y1="65.49" x2="384.03" y2="3.26" gradientTransform="translate(822.22) rotate(-180) scale(1 -1)" xlink:href="#Gradient_2"/>
    <linearGradient id="Gradient_2-15" data-name="Gradient 2" x1="382.68" y1="97.99" x2="382.68" y2="36.05" gradientTransform="translate(822.22) rotate(-180) scale(1 -1)" xlink:href="#Gradient_2"/>
    <linearGradient id="linear-gradient-6" x1="385.38" y1="205.45" x2="385.38" y2="157.21" gradientTransform="translate(822.22) rotate(-180) scale(1 -1)" xlink:href="#linear-gradient"/>
    <linearGradient id="linear-gradient-7" x1="468.32" y1="227.21" x2="468.32" y2="221.91" gradientTransform="translate(822.22) rotate(-180) scale(1 -1)" xlink:href="#linear-gradient"/>
    <linearGradient id="linear-gradient-8" x1="482.87" y1="227.21" x2="482.87" y2="221.99" gradientTransform="translate(822.22) rotate(-180) scale(1 -1)" xlink:href="#linear-gradient"/>
    <linearGradient id="linear-gradient-9" x1="372.61" y1="46.33" x2="372.61" y2="16.95" gradientTransform="translate(822.22) rotate(-180) scale(1 -1)" xlink:href="#linear-gradient"/>
    <linearGradient id="Gradient_2-16" data-name="Gradient 2" x1="520.6" y1="26.97" x2="520.6" y2=".48" gradientTransform="translate(822.22) rotate(-180) scale(1 -1)" xlink:href="#Gradient_2"/>
    <linearGradient id="linear-gradient-10" x1="149.93" y1="32.4" x2="149.93" y2="29.52" xlink:href="#linear-gradient"/>
    <linearGradient id="linear-gradient-11" x1="216.22" y1="32.4" x2="216.22" y2="29.52" gradientTransform="translate(533.7) rotate(-180) scale(1 -1)" xlink:href="#linear-gradient"/>
    <linearGradient id="linear-gradient-12" x1="108.74" y1="31.03" x2="190.63" y2="31.03" xlink:href="#linear-gradient"/>
    <linearGradient id="linear-gradient-13" x1="277.38" y1="30.82" x2="356.84" y2="30.82" xlink:href="#linear-gradient"/>
    <linearGradient id="linear-gradient-14" x1="429.83" y1="152.88" x2="429.83" y2="94.15" xlink:href="#linear-gradient"/>
    <linearGradient id="linear-gradient-15" x1="-98.51" y1="152.88" x2="-98.51" y2="94.15" gradientTransform="translate(-61.54) rotate(-180) scale(1 -1)" xlink:href="#linear-gradient"/>
    <linearGradient id="Gradient_2-17" data-name="Gradient 2" x1="430.84" y1="251.36" x2="430.84" y2="227.85" xlink:href="#Gradient_2"/>
    <linearGradient id="Gradient_2-18" data-name="Gradient 2" x1="-106.41" y1="251.36" x2="-106.41" y2="227.85" gradientTransform="translate(-70.48) rotate(-180) scale(1 -1)" xlink:href="#Gradient_2"/>
    <linearGradient id="linear-gradient-16" x1="54.15" y1="253.88" x2="54.15" y2="245.09" xlink:href="#linear-gradient"/>
    <linearGradient id="linear-gradient-17" x1="259.19" y1="253.88" x2="259.19" y2="245.09" gradientTransform="translate(671.59) rotate(-180) scale(1 -1)" xlink:href="#linear-gradient"/>
    <radialGradient id="radial-gradient" cx="75.41" cy="155.31" fx="75.41" fy="155.31" r="15.87" gradientTransform="translate(-64.49 -72.03) rotate(1.63) scale(1.29 1.61) skewX(.74)" gradientUnits="userSpaceOnUse">
      <stop offset="0" stop-color="#b5e1f6"/>
      <stop offset=".16" stop-color="#87a8b8"/>
      <stop offset=".32" stop-color="#5f7681"/>
      <stop offset=".48" stop-color="#3d4c53"/>
      <stop offset=".63" stop-color="#232b2f"/>
      <stop offset=".77" stop-color="#101415"/>
      <stop offset=".9" stop-color="#040506"/>
      <stop offset="1" stop-color="#010101"/>
    </radialGradient>
    <radialGradient id="radial-gradient-2" cx="391.56" cy="161.41" fx="391.56" fy="161.41" r="15.85" gradientTransform="translate(-63.93 -93.48) rotate(1.63) scale(1.29 1.61) skewX(.74)" xlink:href="#radial-gradient"/>
    <radialGradient id="radial-gradient-3" cx="143.79" cy="373.37" fx="143.79" fy="373.37" r="19.26" gradientTransform="translate(-337.67 145.08) rotate(-1.38) scale(3.94 .29) skewX(.04)" xlink:href="#radial-gradient"/>
    <radialGradient id="radial-gradient-4" cx="70.51" cy="63.34" fx="70.51" fy="63.34" r="13.06" gradientTransform="translate(-72.29 -71.64) rotate(1.63) scale(1.29 1.61) skewX(.74)" xlink:href="#radial-gradient"/>
    <radialGradient id="radial-gradient-5" cx="406.13" cy="69.79" fx="406.13" fy="69.79" r="13.06" gradientTransform="translate(-71.71 -93.68) rotate(1.63) scale(1.29 1.62) skewX(.74)" xlink:href="#radial-gradient"/>
  </defs>
  <g class="cls-29">
    <g id="Calque_2">
      <g id="Calque_1-2" data-name="Calque_1">
        <g>
          <g>
            <path class="cls-55" d="M233.24,26.98s-183.31-.13-183.9-.4-14.01,7.98-14.8,9.47c-.79,1.49,0,91.16,0,91.16h9.03l.13-37.58s-4.23-13.11-4.82-17.41c-.59-4.3-.99-33.86-.49-34.86.49-.99,10.66-7.35,12.33-7.68s46.24-.08,47.16.25c.92.33,5.79,3.74,7.1,4.18,1.32.44,87.21.95,89.58.53,2.37-.42,5.72-4.05,6.71-4.55s31.97,0,31.97,0v-3.12Z"/>
            <path class="cls-10" d="M233.24,26.98s183.31-.13,183.9-.4c.59-.27,14.01,7.98,14.8,9.47.79,1.49,0,91.16,0,91.16h-9.03l-.13-37.58s4.23-13.11,4.82-17.41c.59-4.3.99-33.86.49-34.86s-10.66-7.35-12.33-7.68c-1.68-.33-46.24-.08-47.16.25-.92.33-5.79,3.74-7.1,4.18-1.32.44-87.21.95-89.58.53-2.37-.42-5.72-4.05-6.71-4.55-.99-.5-31.97,0-31.97,0v-3.12Z"/>
            <path class="cls-7" d="M233.24,227.44s-183.31.13-183.9.4-14.01-7.98-14.8-9.47c-.79-1.49,0-91.16,0-91.16h9.03l.13,37.58s-4.23,13.11-4.82,17.41c-.59,4.3-.99,33.86-.49,34.86.49.99,10.66,7.35,12.33,7.68s46.24.08,47.16-.25c.92-.33,5.79-3.74,7.1-4.18,1.32-.44,87.21-.95,89.58-.53,2.37.42,5.72,4.05,6.71,4.55s31.97,0,31.97,0v3.12Z"/>
            <path class="cls-11" d="M233.24,227.44s183.31.13,183.9.4c.59.27,14.01-7.98,14.8-9.47.79-1.49,0-91.16,0-91.16h-9.03l-.13,37.58s4.23,13.11,4.82,17.41c.59,4.3.99,33.86.49,34.86s-10.66,7.35-12.33,7.68c-1.68.33-46.24.08-47.16-.25-.92-.33-5.79-3.74-7.1-4.18-1.32-.44-87.21-.95-89.58-.53-2.37.42-5.72,4.05-6.71,4.55-.99.5-31.97,0-31.97,0v3.12Z"/>
            <path class="cls-9" d="M51.12,227.01s-12.04-7.93-13.81-9.09c-1.78-1.16-14.6-2-14.6-2,0,0,40.32,37.61,42.16,38.75,1.84,1.13,168.38.08,168.38.08v-17.45s-28.15.44-36.31-.22c-8.16-.66-18.61-9.59-18.61-9.59l-127.2-.49Z"/>
            <path class="cls-12" d="M415.37,227.01s12.04-7.93,13.81-9.09c1.78-1.16,14.6-2,14.6-2,0,0-40.32,37.61-42.16,38.75-1.84,1.13-168.38.08-168.38.08v-17.45s28.15.44,36.31-.22c8.16-.66,18.75-9.79,18.75-9.79l127.07-.29Z"/>
            <path class="cls-54" d="M272.51,248.98s21.31-14.7,23.88-16.02,116.02,0,116.02,0c0,0-13.81,15.53-15.98,16.52s-123.92-.5-123.92-.5Z"/>
            <path class="cls-54" d="M194.3,248.98s-21.31-14.7-23.88-16.02c-2.57-1.32-116.02,0-116.02,0,0,0,13.81,15.53,15.98,16.52s123.92-.5,123.92-.5Z"/>
            <path class="cls-33" d="M178.32,227.49l109.97-.2s-11.84,9.46-15,10.61c-3.16,1.16-75.77,0-78.24,0s-16.74-10.42-16.74-10.42Z"/>
            <path class="cls-8" d="M34.4,216.82s-9.66-6.08-11.7-10.75c-2.04-4.67-2.04-64.32-2.04-64.32,0,0,12.37,15.02,15.26,15.86l-1.52,59.21Z"/>
            <path class="cls-33" d="M32.37,207.54s-5.39-1.3-6.58-6.03c-1.18-4.74-.53-46.86-.53-46.86,0,0,6.17,6.16,7.35,9.9,1.18,3.74-.25,42.99-.25,42.99Z"/>
            <path class="cls-52" d="M20.67,141.75l13.72,5.59-.04,5.99,4.67,5.12s-2.37-.17-4.21-1.05c-1.84-.88-11.97-11.87-14.14-15.65Z"/>
            <path class="cls-52" d="M22.7,215.92l7.71-1.88s3.32,2.34,3.98,2.78,6.24,3.29,6.24,3.29c0,0-11.82.42-17.94-4.19Z"/>
            <path class="cls-54" d="M19.35,97.99s11.43-8.59,14.84-9.66c3.41-1.07,7.85.58,7.85.58,0,0-5.04-3.74-7.85-3.69-2.81.05-10.6,5.59-14.84,12.77Z"/>
            <path class="cls-14" d="M64.6,26.9l-8.92-6.63s38.39-.42,39.31,0c.92.42,11.97,6.55,11.97,6.55l-42.36.08Z"/>
            <path class="cls-13" d="M20.67,65.49c.28-4.85-13.42-23.74-13.42-28.49V3.26s17.43,20.89,20.36,22.05,21.74,1.27,21.74,1.27c0,0-16.71,8.65-24.03,18.82-4.95,6.88-4.65,20.1-4.65,20.1Z"/>
            <path class="cls-46" d="M34.54,36.05s-11.71,9.78-13.09,16.23c-1.17,5.44-2.11,45.71-2.11,45.71,0,0,8.77-11.83,14.84-12.77l.35-49.17Z"/>
            <path class="cls-54" d="M22.9,86.92s.89-28.91,2.07-32.63c1.18-3.72,6.22-10.24,6.22-10.24l-.59,35.1s-5.43,3.88-7.7,7.76Z"/>
            <path class="cls-28" d="M20.67,63.9s.69-11.77,3.37-15.96c2.68-4.18,10.51-11.89,10.51-11.89,0,0-10.92,8.65-12.17,11.45-1.25,2.81-1.71,16.4-1.71,16.4Z"/>
            <path class="cls-33" d="M19.35,49.59s-7.13-9.41-8.11-12.63c-.99-3.22.12-21.82.12-21.82,0,0,8.02,10.49,9.31,12.31,1.28,1.82-1.32,22.14-1.32,22.14Z"/>
            <path class="cls-28" d="M7.25,3.26s27.1,20.06,29.27,21.05c2.17.99,19.16,2.34,19.16,2.34,0,0-24.36.14-28.08-1.35C23.89,23.82,7.25,3.26,7.25,3.26Z"/>
            <path class="cls-28" d="M94.99,20.27l26.37,6.58-20.94.02s-4.51-2.84-5.43-6.6Z"/>
            <path class="cls-54" d="M271.92,219.77s-1.32-.21-7.37,4.64h9.87s.39-3.67-2.5-4.64Z"/>
            <path class="cls-54" d="M194.45,219.77s1.32-.21,7.37,4.64h-9.87s-.39-3.67,2.5-4.64Z"/>
            <path class="cls-27" d="M32.62,164.56s-2.78-6.1-5.83-7.34c0,0-.44,35.76.35,41.05.79,5.29,5.29,7.19,5.29,7.19l.19-40.9Z"/>
            <path class="cls-33" d="M102.81,227.21s6.51-5.4,7.8-5.65c1.28-.25,11.05,0,11.05,0l-7.74,5.65h-11.11Z"/>
            <path class="cls-33" d="M117.41,227.21s6.51-5.4,7.8-5.65c1.28-.25,11.05,0,11.05,0l-7.74,5.65h-11.11Z"/>
            <path class="cls-22" d="M104.1,227.21s5.72-4.78,7.2-5.11c1.48-.33,9.77-.11,9.77-.11l-7.16,5.22h-9.82Z"/>
            <path class="cls-21" d="M118.7,227.21s6.17-4.7,7-5.03c.84-.33,9.87-.12,9.87-.12l-7.05,5.15h-9.82Z"/>
            <path class="cls-20" d="M180.36,229.16s65.84-2.09,105.6,0c0,0-11.37,8.57-12.66,8.76-1.29.18-75.68,1.01-78.24,0-2.55-1.01-14.7-8.76-14.7-8.76Z"/>
            <path class="cls-17" d="M12.74,16.95s.5,17.61,1.02,19.09c.53,1.49,5.98,10.29,5.98,10.29,0,0,1.28-15.35,1.28-18.55,0-2.26-8.28-10.83-8.28-10.83Z"/>
            <path class="cls-45" d="M105.09,26.71c2.29,0-8.58-20.96-8.58-20.96l53.06.94S142.5,0,144.27.5c1.78.5,88.97.5,88.97.5v25.98l-128.16-.26Z"/>
            <path class="cls-48" d="M432.09,216.82s9.66-6.08,11.7-10.75c2.04-4.67,2.04-64.32,2.04-64.32,0,0-12.37,15.02-15.26,15.86l1.52,59.21Z"/>
            <path class="cls-33" d="M434.11,207.54s5.39-1.3,6.58-6.03c1.18-4.74.53-46.86.53-46.86,0,0-6.17,6.16-7.35,9.9s.25,42.99.25,42.99Z"/>
            <path class="cls-52" d="M445.82,141.75l-13.72,5.59.04,5.99-4.67,5.12s2.37-.17,4.21-1.05c1.84-.88,11.97-11.87,14.14-15.65Z"/>
            <path class="cls-52" d="M443.78,215.92l-7.71-1.88s-3.32,2.34-3.98,2.78-6.24,3.29-6.24,3.29c0,0,11.82.42,17.94-4.19Z"/>
            <path class="cls-54" d="M447.14,97.99s-11.43-8.59-14.84-9.66c-3.41-1.07-7.85.58-7.85.58,0,0,5.04-3.74,7.85-3.69,2.81.05,10.6,5.59,14.84,12.77Z"/>
            <path class="cls-47" d="M401.88,26.9l8.92-6.63s-38.39-.42-39.31,0c-.92.42-11.97,6.55-11.97,6.55l42.36.08Z"/>
            <path class="cls-44" d="M445.82,65.49c-.28-4.85,13.42-23.74,13.42-28.49V3.26s-17.43,20.89-20.36,22.05-21.74,1.27-21.74,1.27c0,0,16.71,8.65,24.03,18.82,4.95,6.88,4.65,20.1,4.65,20.1Z"/>
            <path class="cls-43" d="M431.94,36.05s11.71,9.78,13.09,16.23c1.17,5.44,2.11,45.71,2.11,45.71,0,0-8.77-11.83-14.84-12.77l-.35-49.17Z"/>
            <path class="cls-54" d="M443.58,86.92s-.89-28.91-2.07-32.63c-1.18-3.72-6.22-10.24-6.22-10.24l.59,35.1s5.43,3.88,7.7,7.76Z"/>
            <path class="cls-28" d="M445.82,63.9s-.69-11.77-3.37-15.96-10.51-11.89-10.51-11.89c0,0,10.92,8.65,12.17,11.45,1.25,2.81,1.71,16.4,1.71,16.4Z"/>
            <path class="cls-33" d="M447.14,49.59s7.13-9.41,8.11-12.63c.99-3.22-.12-21.82-.12-21.82,0,0-8.02,10.49-9.31,12.31-1.28,1.82,1.32,22.14,1.32,22.14Z"/>
            <path class="cls-28" d="M459.24,3.26s-27.1,20.06-29.27,21.05c-2.17.99-19.16,2.34-19.16,2.34,0,0,24.36.14,28.08-1.35,3.72-1.49,20.36-22.05,20.36-22.05Z"/>
            <path class="cls-28" d="M371.5,20.27l-26.37,6.58,20.94.02s4.51-2.84,5.43-6.6Z"/>
            <path class="cls-18" d="M433.86,164.56s2.78-6.1,5.83-7.34c0,0,.44,35.76-.35,41.05-.79,5.29-5.29,7.19-5.29,7.19l-.19-40.9Z"/>
            <path class="cls-33" d="M363.67,227.21s-6.51-5.4-7.8-5.65c-1.28-.25-11.05,0-11.05,0l7.74,5.65h11.11Z"/>
            <path class="cls-33" d="M349.07,227.21s-6.51-5.4-7.8-5.65c-1.28-.25-11.05,0-11.05,0l7.74,5.65h11.11Z"/>
            <path class="cls-16" d="M362.39,227.21s-5.72-4.78-7.2-5.11c-1.48-.33-9.77-.11-9.77-.11l7.16,5.22h9.82Z"/>
            <path class="cls-15" d="M347.79,227.21s-6.17-4.7-7-5.03c-.84-.33-9.87-.12-9.87-.12l7.05,5.15h9.82Z"/>
            <path class="cls-19" d="M453.75,16.95s-.5,17.61-1.02,19.09c-.53,1.49-5.98,10.29-5.98,10.29,0,0-1.28-15.35-1.28-18.55,0-2.26,8.28-10.83,8.28-10.83Z"/>
            <path class="cls-50" d="M359.53,26.87c-2.29,0,10.46-21.12,10.46-21.12l-53.06.94S323.99,0,322.21.5c-1.78.5-88.97.5-88.97.5v25.98l126.28-.1Z"/>
            <path class="cls-54" d="M112.69,26.57s-7.7-16.46-7.31-17.45,47.33,0,47.33,0l80.53,17.86-120.55-.41Z"/>
            <path class="cls-54" d="M359.86,11.21c-1.73,4.66-6.74,15.36-6.74,15.36l-104.74.35-15.13.06h-.67l1.56-.34s.01,0,.01,0l78.95-17.5s46.94-.99,47.34,0c.08.19-.15.96-.57,2.09Z"/>
            <path class="cls-33" d="M103.7,28.53s4.64,3.88,5.03,3.88,82.08.33,83.07,0c.99-.33,4.74-3.88,4.74-3.88h-92.84Z"/>
            <path class="cls-34" d="M106.17,29.52s2.76,2.64,3.26,2.81c.49.17,79.62,0,80.6,0s3.65-2.81,3.65-2.81h-87.51Z"/>
            <path class="cls-33" d="M363.7,28.53s-4.64,3.88-5.03,3.88-82.08.33-83.07,0-4.74-3.88-4.74-3.88h92.84Z"/>
            <path class="cls-35" d="M361.24,29.52s-2.76,2.64-3.26,2.81c-.49.17-79.62,0-80.6,0s-3.65-2.81-3.65-2.81h87.51Z"/>
            <path class="cls-54" d="M38.89,182.2s.07-17.88.13-18.54c.07-.66,2.24-9,2.24-9l2.46-65.03v75.16l-4.82,17.41Z"/>
            <path class="cls-52" d="M43.71,90.56s-8.97-6.77-9.16-7.27c-.2-.5,4.2-12.54,4.2-12.54,0,0,5.05,18.31,4.96,19.81Z"/>
            <path class="cls-54" d="M38.18,48.81l-1.07-9.71-2.57.5s14.4-10.49,15.19-11.07c.79-.58,35.22,1.11,35.22,1.11,0,0-33.05.04-34.23.04s-11.84,7.19-12.33,7.68c-.49.5-.21,11.45-.21,11.45Z"/>
            <path class="cls-23" d="M23.5,45.91s1.83-15.76,3.45-16.86,21.35-2.08,21.35-2.08c0,0-16.04,8.93-24.8,18.94Z"/>
            <path class="cls-23" d="M27.61,25.31l9.24-.87s-11.1-7.39-13.34-8.87c-2.24-1.49-9.02-3.85-9.02-3.85,0,0,7.83,10.41,13.12,13.6Z"/>
            <path class="cls-31" d="M57.89,20.24s4.35,1.36,12.3,1.68c13.02.52,24.8-1.66,24.8-1.66l-37.1-.02Z"/>
            <path class="cls-54" d="M31.84,224.43s29.73,24.08,37.62,27.36c7.9,3.27,161.14,2.98,161.14,2.98l-165.75-.1-33.02-30.24Z"/>
            <path class="cls-24" d="M56.74,235.56s106.38-2.28,112.38-.96c6,1.33,19.93,14.43,19.93,14.43l5.25-.06s-20.4-14.54-23.88-16.02c-3.48-1.49-116.02,0-116.02,0l2.34,2.61Z"/>
            <path class="cls-24" d="M410.07,235.56s-106.38-2.28-112.38-.96-19.93,14.43-19.93,14.43l-5.25-.06s20.4-14.54,23.88-16.02c3.47-1.49,116.02,0,116.02,0l-2.34,2.61Z"/>
            <path class="cls-52" d="M56.54,227.3s11.84,4.15,23.28,5.07c11.44.92,85.73-.57,88.5-.73,2.76-.17,8.09-3.78,8.09-3.78l-119.87-.55Z"/>
            <path class="cls-52" d="M107.49,220.12s26.97,1.1,43.02,1.32c16.05.22,41.44-1.77,41.44-1.77l-84.45.44Z"/>
            <path class="cls-52" d="M42.51,220.12s7.72,4.08,9.1,4.2c1.38.12,32.85.46,32.85.46,0,0-32.95.57-33.64.49s-8.31-5.15-8.31-5.15Z"/>
            <path class="cls-23" d="M195.36,241.1c-2.45-.02,9.47,8.71,9.47,8.71h62.55s5.72-5.86,6.12-7.45c.39-1.59-74.39-1.23-78.14-1.27Z"/>
            <path class="cls-52" d="M195.06,237.91s5.82,1.7,38.25,1.7,39.99-1.7,39.99-1.7c0,0-41.24.85-78.24,0Z"/>
            <path class="cls-52" d="M69.74,249.04s-7.1,3.46,51.92,2.58c59.02-.88,73.37-2.58,73.37-2.58,0,0-116.22,2.63-125.29,0Z"/>
            <path class="cls-52" d="M23.01,83.62s5.51-3.38,6.45-4.04c.94-.66,1.33-11.85,1.33-11.85v11.73s-7.1,4.96-7.89,8.22l.11-4.05Z"/>
            <path class="cls-28" d="M36.05,84.63c-.03-1.71,4.65.39,5.24,1.22.6.83.97,3.61.97,3.61l-6.21-4.83Z"/>
            <path class="cls-28" d="M26.17,148.78s7.06,4.89,8.57,6.32c1.51,1.43,4.28,3.36,4.28,3.36,0,0-3.49-.39-4.6-.88-1.12-.5-8.24-8.8-8.24-8.8Z"/>
            <path class="cls-28" d="M25.09,217.36s5.39-1.03,7.13-.54,8.43,3.29,8.43,3.29c0,0-10.8-.23-15.55-2.75Z"/>
            <path class="cls-54" d="M34.19,88.33s3.66,4.38,4.97,9c1.3,4.63-1.27,59.88-1.27,59.88l-3.54-3.88-.16-65Z"/>
            <path class="cls-31" d="M37.6,91.61s1.71,5.23,1.8,7.87c.09,2.64,1.89,41.45,1.89,41.45,0,0,1.24-36.82,1.53-42.27.3-5.45-2.76-9.25-3.3-9.5-.54-.25-2.21-.04-1.93,2.45Z"/>
            <path class="cls-54" d="M427.54,182.2s-.07-17.88-.13-18.54c-.07-.66-2.24-9-2.24-9l-2.46-65.03v75.16l4.82,17.41Z"/>
            <path class="cls-52" d="M422.71,90.56s8.97-6.77,9.16-7.27-4.2-12.54-4.2-12.54c0,0-5.05,18.31-4.96,19.81Z"/>
            <path class="cls-28" d="M430.37,84.63c.03-1.71-4.65.39-5.24,1.22-.6.83-.97,3.61-.97,3.61l6.21-4.83Z"/>
            <path class="cls-54" d="M432.23,88.33s-3.66,4.38-4.97,9c-1.3,4.63,1.27,59.88,1.27,59.88l3.54-3.88.16-65Z"/>
            <path class="cls-31" d="M428.82,91.61s-1.71,5.23-1.8,7.87c-.09,2.64-1.89,41.45-1.89,41.45,0,0-1.24-36.82-1.53-42.27-.3-5.45,2.76-9.25,3.3-9.5.54-.25,2.21-.04,1.93,2.45Z"/>
            <path class="cls-28" d="M167.05,231.68c-.7-.54,7.79-2.83,7.79-2.83,0,0-1.39,3.44-2.67,3.44s-5.12-.62-5.12-.62Z"/>
            <path class="cls-28" d="M157.67,250.86s5.52-1.53,15.78-1.64c10.26-.11,18.48-.21,18.48-.21,0,0-18.88,2.24-34.27,1.85Z"/>
            <path class="cls-28" d="M191.96,224.41s13.93,1.16,39.18,1.44c25.26.28,43.28-1.44,43.28-1.44,0,0-68.24-.23-82.46,0Z"/>
            <path class="cls-52" d="M144.27.5s30.83,3.55,88.97,3.55,88.97-3.55,88.97-3.55c0,0-136.41-1.13-177.94,0Z"/>
            <path class="cls-52" d="M96.5,5.75l53.06.94,11.33,1.98s-40.65,0-64.39-2.93Z"/>
            <path class="cls-52" d="M369.98,5.75l-53.06.94-12.12,2.53s51.17-1.67,65.18-3.48Z"/>
            <path class="cls-52" d="M272.51,248.98s107.93,1.32,123.92.5c0,0-20.85,1.16-61.96,1.16s-61.96-1.65-61.96-1.65Z"/>
            <path class="cls-28" d="M305.85,249.34s8.49,1.38,28.12,1.29c19.63-.09,24.37-.91,24.37-.91l-52.49-.38Z"/>
            <path class="cls-52" d="M288.3,227.3s10.44,4.83,13.61,5c3.18.17,104.71.28,107.87,0,3.16-.28,10.79-5,10.79-5h-132.27Z"/>
            <path class="cls-28" d="M291.83,228.86c1.01-.94,17.78,2.61,17.78,2.61,0,0-12.63,1.24-13.91.83s-3.87-3.43-3.87-3.43Z"/>
            <path class="cls-28" d="M271.92,219.77l89.58.53s-56.56-1.98-89.58-.53Z"/>
            <path class="cls-28" d="M427.47,158.45s2.56-3.88,4.82-5.69c2.26-1.81,10.46-7.23,10.46-7.23,0,0-9.07,10.62-9.93,11.68-.86,1.06-5.36,1.24-5.36,1.24Z"/>
            <path class="cls-28" d="M430.56,219.77s2.73-2.43,6.28-2.69c3.54-.25,5.11,0,5.11,0,0,0-8.81,3.45-11.38,2.69Z"/>
            <path class="cls-54" d="M344.83,255.19s52.31-2.92,57.2-5.21c4.89-2.29,41.75-34.06,41.75-34.06l-42.16,38.75s-39.89.07-56.79.52Z"/>
            <path class="cls-23" d="M429.97,24.32s7.45.98,8.91.5c1.47-.48,10.73-11.09,10.73-11.09,0,0-6.84.42-19.64,10.59Z"/>
            <path class="cls-52" d="M435.68,67.02s1.03,9.48,1.68,10.66c.65,1.17,6.22,6.42,6.22,6.42v3.7s-7.2-7.77-7.79-8.36c-.59-.59-.11-12.42-.11-12.42Z"/>
            <path class="cls-23" d="M423.44,27.98s20.18,16.72,20.61,16.81-.43-17.17-1.3-17.26c-.86-.09-19.32.45-19.32.45Z"/>
            <path class="cls-31" d="M371.5,20.27s10.6.7,20.24,1.06c9.64.36,19.07-1.06,19.07-1.06h-39.31Z"/>
            <path class="cls-24" d="M359.86,11.21c-3.6-2.05-34.11-.72-45.05,0-10.57.7-62.99,14.78-66.44,15.71-.13.04-.18.06-.18.06h-14.95s.31-.12.89-.34c.01,0,.01,0,.01,0l78.95-17.5s46.94-.99,47.34,0c.08.19-.15.96-.57,2.09Z"/>
            <path class="cls-24" d="M105.95,11.21c3.6-2.05,34.11-.72,45.05,0,10.57.7,62.99,14.78,66.44,15.71.13.04.18.06.18.06h14.95s-.31-.12-.89-.34c-.01,0-.01,0-.01,0l-78.95-17.5s-46.94-.99-47.34,0c-.08.19.15.96.57,2.09Z"/>
            <path class="cls-28" d="M112.69,26.57l119.88.41s-71.33-3.51-119.88-.41Z"/>
            <path class="cls-28" d="M233.69,26.97l119.42-.41s-54.9-2.49-119.42.41Z"/>
            <path class="cls-26" d="M194.3,236.62c-8.21-1.37,13.9-8.7,44.54-8.39,30.65.31,33.66,6.96,33.67,8.39.02,1.43-62.32,2.65-78.21,0Z"/>
            <path class="cls-26" d="M27.57,200.02c-1.09-5.25,2.7-22.04,4.1-25.11,1.4-3.07.76,30.55.76,30.55,0,0-4.35-2.98-4.86-5.44Z"/>
            <path class="cls-26" d="M434.06,205.45s.69-31.99.76-33.08c.06-1.08,5.85,18.6,4.53,25.89-1.32,7.29-5.29,7.19-5.29,7.19Z"/>
            <path class="cls-26" d="M446.66,45.31s-.85-14.22,0-16.87c.85-2.65,6.46-5.6,6.46-5.6,0,0,.07,9.17-.29,12.72-.36,3.55-6.17,9.76-6.17,9.76Z"/>
            <path class="cls-26" d="M19.74,46.33s-5.61-8.84-5.69-11.95c-.07-3.11,1.01-9.38,1.01-9.38,0,0,4.39,4.48,5.25,9.38s-.57,11.95-.57,11.95Z"/>
            <path class="cls-36" d="M108.74,32.41s2.75-2.59,37-2.9,44.9,3.04,44.9,3.04l-81.89-.15Z"/>
            <path class="cls-37" d="M277.38,32.32s13.09-1.82,36.73-2.81,42.74,1.9,42.74,1.9l-79.47.91Z"/>
            <path class="cls-42" d="M69.47,230.81c-1.16.14-6.63,1.56-6.63,1.56l23.5.23s-14.97-2.01-16.87-1.79Z"/>
            <path class="cls-42" d="M164.87,2.15s25.75,2.15,33.96,1.9c8.21-.25,28.06-.38,28.06-.38,0,0-34.89-3.5-62.02-1.52Z"/>
            <path class="cls-42" d="M370.12,232.46s10.47-1.4,15.97-1.92c5.5-.52,19,1.92,19,1.92h-34.97Z"/>
            <g>
              <path class="cls-54" d="M34.22,62.29c-1.36-.32-1.85,3.77-.05,6.68,1.78,2.87,3.15-5.94.05-6.68Z"/>
              <path class="cls-25" d="M33.19,65.33c.59,2.28,2.41,2.03,2.72.71.32-1.33-.53-4-1.86-3.77-1.33.23-.86,3.06-.86,3.06Z"/>
              <path class="cls-28" d="M33.43,67.36c-.03-1.44,1.52,0,2.18-.06.66-.06.25,2.39-.59,2.23-.84-.17-1.59-2.16-1.59-2.16Z"/>
            </g>
            <g>
              <path class="cls-54" d="M293.56.91c-1.27-.04-2.34,2.21-1.01,3.58,1.31,1.36,3.91-3.5,1.01-3.58Z"/>
              <path class="cls-25" d="M292.12,2.64c.24,1.16,2.04.85,2.53.11.5-.74.06-2.09-1.26-1.83-1.32.26-1.28,1.72-1.28,1.72Z"/>
              <path class="cls-28" d="M292.06,3.71c.17-.77,1.47-.15,2.12-.25.65-.1-.1,1.26-.89,1.25-.79,0-1.23-1-1.23-1Z"/>
            </g>
            <g>
              <path class="cls-54" d="M34.37,176.54c-1.36-.32-1.85,3.77-.05,6.68,1.78,2.87,3.15-5.94.05-6.68Z"/>
              <path class="cls-25" d="M33.34,179.58c.59,2.28,2.41,2.03,2.72.71.32-1.33-.53-4-1.86-3.77-1.33.23-.86,3.06-.86,3.06Z"/>
              <path class="cls-28" d="M33.58,181.61c-.03-1.44,1.52,0,2.18-.06.66-.06.25,2.39-.59,2.23-.84-.17-1.59-2.17-1.59-2.17Z"/>
            </g>
            <g>
              <path class="cls-54" d="M444.43,20.22c-1.03-.65-3.49,1.09-3.35,3.11.14,2,5.7-1.63,3.35-3.11Z"/>
              <path class="cls-25" d="M442.03,21.27c-.61,1.29,1.1,1.83,2.03,1.33.94-.51,1.52-2.07.24-2.45-1.28-.38-2.27,1.12-2.27,1.12Z"/>
              <path class="cls-28" d="M441.23,22.31c.68-.69,1.33.56,1.94.77.61.21-.97,1.21-1.62.83-.65-.38-.33-1.6-.33-1.6Z"/>
            </g>
            <path class="cls-42" d="M277.26,221.45c-2.17.45,12.02.88,17.27.46,5.25-.41-14.68-1-17.27-.46Z"/>
            <path class="cls-42" d="M174.8,221.08s3.95.66,8.34,0c4.39-.66-8.34,0-8.34,0Z"/>
            <g>
              <path class="cls-33" d="M431.1,92.65s-2.25,3.87-2.25,4.95.38,55.28.38,55.28c0,0,1.3-3.07,1.87-4.52.58-1.45,0-55.72,0-55.72Z"/>
              <path class="cls-38" d="M430.27,94.15s1.05,42.59.29,55.54l-1.33,3.19s-.52-54.63-.38-55.28c.14-.65,1.42-3.45,1.42-3.45Z"/>
            </g>
            <g>
              <path class="cls-33" d="M35.71,92.65s2.25,3.87,2.25,4.95-.38,55.28-.38,55.28c0,0-1.3-3.07-1.87-4.52-.58-1.45,0-55.72,0-55.72Z"/>
              <path class="cls-39" d="M36.54,94.15s-1.05,42.59-.29,55.54l1.33,3.19s.52-54.63.38-55.28-1.42-3.45-1.42-3.45Z"/>
            </g>
            <g>
              <path class="cls-49" d="M411.83,245.09s11.28,5.99,12.25,6.24c2.32.61,25.75-10.14,25.75-10.14l-19.05-13.34-18.95,17.24Z"/>
              <path class="cls-24" d="M433.86,230.01s-16.87,12.63-17.37,13.48c-.5.84,7.91,4.58,9.35,4.64,1.44.06,23.99-6.93,23.99-6.93,0,0-23.99,10.21-25.36,10.17-1.37-.05-12.65-6.27-12.65-6.27l18.95-17.24,3.08,2.15Z"/>
              <path class="cls-30" d="M421.37,246.52c-3-1.95-3.43-3.19-.41-6.11,3.01-2.91,24.87.68,24.87.68,0,0-18.29,7.5-19.98,7.03-1.69-.47-4.48-1.6-4.48-1.6Z"/>
              <path class="cls-42" d="M420.02,245.53s1.3.18,2.66.54,1.65,1.57,1.65,1.57c0,0-3.6-1.35-4.32-2.11Z"/>
            </g>
            <g>
              <path class="cls-51" d="M54.93,245.09s-11.28,5.99-12.25,6.24c-2.32.61-25.75-10.14-25.75-10.14l19.05-13.34,18.95,17.24Z"/>
              <path class="cls-24" d="M32.9,230.01s16.87,12.63,17.37,13.48c.5.84-7.91,4.58-9.35,4.64s-23.99-6.93-23.99-6.93c0,0,23.99,10.21,25.36,10.17,1.37-.05,12.65-6.27,12.65-6.27l-18.95-17.24-3.08,2.15Z"/>
              <path class="cls-30" d="M45.4,246.52c3-1.95,3.43-3.19.41-6.11-3.01-2.91-24.87.68-24.87.68,0,0,18.29,7.5,19.98,7.03s4.48-1.6,4.48-1.6Z"/>
              <path class="cls-42" d="M46.74,245.53s-1.3.18-2.66.54-1.65,1.57-1.65,1.57c0,0,3.6-1.35,4.32-2.11Z"/>
            </g>
            <path class="cls-23" d="M233.69,25.57c-5.27.51,22.75-19.48,32.27-20.84,9.52-1.35,25.5-1.92,25.97,0s4.57-1.24,4.57-1.24l21.91-1.47s-2.56,3.18-3.24,4.18-67.89,18.04-81.49,19.37Z"/>
            <path class="cls-24" d="M23.43,73.37s1.64-16.27,2.79-18.25,4.97-5.15,4.97-5.15v-5.91s-5.09,7.37-6.33,10.66c-1.24,3.29-1.43,18.65-1.43,18.65Z"/>
            <path class="cls-24" d="M435.5,59.51s.89-8.31,1.97-8.31,2.94,6.96,3.68,9.04c.74,2.08,1.8,11.02,1.8,11.02,0,0-.61-14.98-1.44-16.96-.84-1.98-6.22-10.24-6.22-10.24l.2,15.46Z"/>
            <g class="cls-53">
              <path class="cls-1" d="M113.89,25.29c-1.62-1.28-4.86-10.86-3.02-12.67,1.83-1.81,34.67,4.7,38.81,6.78s-6.54,4.61-9.02,5.06-26.77.83-26.77.83Z"/>
              <path class="cls-1" d="M132.13,11.53c-.97.02,10.15,5.49,23.42,7.26,13.28,1.77,14.68-2.02,14.68-2.02,0,0-26.55-5.42-38.1-5.24Z"/>
              <path class="cls-1" d="M167.1,4.49c-7.23.63,4.53,7.85,18.46,10.48,13.92,2.63,8.63-7.22,6.69-8.49-1.94-1.26-25.15-1.99-25.15-1.99Z"/>
              <path class="cls-1" d="M336.55,248.98c-2.35-.36,25.26-12.9,39.5-12,14.25.9,11.55,8.47,11.55,8.47,0,0-30.33,6.67-51.05,3.53Z"/>
              <path class="cls-1" d="M347.79,236.26c-5.26,3.09,5.88,2.96,9.2.68s-5.31-2.97-9.2-.68Z"/>
              <path class="cls-1" d="M75.98,247.17c-5.26,3.09,5.88,2.96,9.2.68,3.32-2.28-5.31-2.97-9.2-.68Z"/>
              <path class="cls-1" d="M139.81,229.41c-5.26,3.09,5.88,2.96,9.2.68,3.32-2.28-5.31-2.97-9.2-.68Z"/>
              <path class="cls-1" d="M294.24,227.21c-3.45-1.25,15.97-5.77,23.64-6.13,7.66-.36,15.97,6.12,15.97,6.12h-39.61Z"/>
              <path class="cls-1" d="M160.95,225.1c-2.84,2.28,5.07,1.04,10.69,0,5.61-1.04-9.89-.63-10.69,0Z"/>
              <path class="cls-1" d="M158.36,249.37c-3.45.03,12.2-6.7,17.27-6.25,5.07.45,6.69,4.65,5.83,5.33-.86.68-23.1.92-23.1.92Z"/>
              <path class="cls-1" d="M33.43,40.6c-1.24,1.57-.02,15.63.95,18.11.97,2.49,3.57,5.94,3.57,5.94,0,0-1.25-22.87-1.88-24.05-.63-1.18-2.64,0-2.64,0Z"/>
              <path class="cls-1" d="M41.3,32.37c-3.21,2.33.15,2.45,2.41-.73,2.26-3.18-2.41.73-2.41.73Z"/>
              <path class="cls-1" d="M342.6,15.4c-10.3,4.01,3.31,6.52,9.79,2.43,6.48-4.09-6.33-3.77-9.79-2.43Z"/>
              <path class="cls-1" d="M348.35,22.29c-2.47,2.6,1.73,1.69,3.45,0,1.73-1.69-2.59-.91-3.45,0Z"/>
            </g>
            <g>
              <path class="cls-24" d="M244,250.06c-2.82-1.93,5.98-6.02,12.95-6.68,6.97-.66,8.11,4.39,6,6.33-2.11,1.95-17.39,1.41-18.95.35Z"/>
              <path class="cls-24" d="M244.44,250.25c-1.59-.89,3.74-5.18,11.16-6.01s8.19,2.3,8.19,2.3c0,0-.31-3.37-6.15-3.21-5.84.16-11.07,2.95-13.2,4.38-2.12,1.43,0,2.53,0,2.53Z"/>
              <path class="cls-52" d="M245.58,250.51s6.64.45,11.51,0c4.86-.45,6.24-1.21,6.24-1.21,0,0-.67,1.04-3.59,1.73-2.92.69-12.8-.07-14.15-.52Z"/>
            </g>
            <g>
              <path class="cls-24" d="M211.69,249.62c-1.51-1.81-1.18-5.65.19-6.26,1.38-.62,3.83,4.11,4.17,5.94.34,1.83-3.53,1.33-4.37.32Z"/>
              <path class="cls-24" d="M211.87,249.79c-.76-.83-1.35-4.86.06-5.63,1.41-.78,2.95,2.16,2.95,2.16,0,0-1.53-3.16-2.86-3.01s-1.36,2.77-1.25,4.11,1.1,2.37,1.1,2.37Z"/>
              <path class="cls-52" d="M212.26,250.03s1.78.43,2.74,0c.96-.43.96-1.13.96-1.13,0,0,.29.97-.11,1.62-.4.65-3.08-.06-3.59-.48Z"/>
            </g>
            <g>
              <path class="cls-24" d="M281.57,11.81c-1.51-1.81-1.18-5.65.19-6.26,1.38-.62,3.83,4.11,4.17,5.94.34,1.83-3.53,1.33-4.37.32Z"/>
              <path class="cls-24" d="M281.76,11.99c-.76-.83-1.35-4.86.06-5.63s2.95,2.16,2.95,2.16c0,0-1.53-3.16-2.86-3.01-1.32.15-1.36,2.77-1.25,4.11s1.1,2.37,1.1,2.37Z"/>
              <path class="cls-52" d="M282.14,12.23s1.78.43,2.74,0c.96-.43.96-1.13.96-1.13,0,0,.29.97-.11,1.62-.4.65-3.08-.06-3.59-.48Z"/>
            </g>
            <path class="cls-32" d="M51.61,224.33s-3.48,2.69-4.87,2.88,1.67,12.4,1.67,12.4l-2.03-2.29s-.54-8.07-.81-10.51-.02-.81,2.3-1.13,3.11-1.52,3.11-1.52l.63.16Z"/>
            <path class="cls-52" d="M47.09,233.62s-.4-5.08-.15-5.53c.72-1.3,2.27-2.08,2.27-2.08,0,0-1.78.7-2.4,1.03s-.07,4.72.28,6.58Z"/>
            <path class="cls-32" d="M149.56,6.7s21.5,1.11,26.54.52c5.04-.59,16.72-2,20.45-3.16s17.4-4.05,17.4-4.05h-2.52s-26.84,2.41-15.54,3.69c-1.47.89-14.96,1.99-22.23,2.81-7.27.82-24.09.19-24.09.19Z"/>
            <path class="cls-52" d="M177.48,7.05s11.71-.82,13.97-1.3c2.27-.48,6.71-2.16,6.71-2.16,0,0-2.15.56-4.23,1.04-2.09.48-9.71,1.72-16.46,2.41Z"/>
            <path class="cls-52" d="M152.82,6.8s5.07,1.58,5.97,1.51c.9-.07,8.43-.96,8.43-.96,0,0-9.57-.11-14.39-.55Z"/>
            <path class="cls-33" d="M172.86,232.29l32.74,22.48,57.73.14,32.37-22.63s-31.82,20.11-34.41,20.83c-2.59.72-52.19.81-55.4,0-3.21-.81-33.03-20.83-33.03-20.83Z"/>
            <polygon class="cls-33" points="58.27 237.22 68.31 237.22 77.25 246.24 67.18 246.24 58.27 237.22"/>
            <polygon class="cls-33" points="408.52 237.22 398.49 237.22 389.54 246.24 399.62 246.24 408.52 237.22"/>
            <path class="cls-24" d="M389.85,246.24s7.33-6.21,9.18-6.96c1.85-.76,7.67-.21,7.67-.21l1.82-1.84h-10.04l-8.95,9.02h.31Z"/>
            <path class="cls-24" d="M76.95,246.24s-7.33-6.21-9.18-6.96c-1.85-.76-7.67-.21-7.67-.21l-1.82-1.84h10.04l8.95,9.02h-.31Z"/>
            <path class="cls-40" d="M44.3,250.52l19.69,3.36-9.07-8.78s-7.81,1.73-10.62,5.42Z"/>
            <path class="cls-41" d="M422.25,250.52l-19.69,3.36,9.07-8.78s7.81,1.73,10.62,5.42Z"/>
          </g>
          <ellipse class="cls-6" cx="28.3" cy="181.45" rx="20.5" ry="25.63" transform="translate(-9.49 1.74) rotate(-3.01)"/>
          <ellipse class="cls-5" cx="436.84" cy="181.49" rx="20.47" ry="25.6" transform="translate(-8.93 23.18) rotate(-3.01)"/>
          <path class="cls-4" d="M308.43,236.08c.1,3.03-33.79,6.31-75.7,7.32-41.91,1.01-75.97-.63-76.07-3.67-.1-3.03,33.79-6.31,75.7-7.32,41.91-1.01,75.97.63,76.07,3.67Z"/>
          <ellipse class="cls-2" cx="16.88" cy="33.2" rx="16.87" ry="21.09" transform="translate(-1.72 .93) rotate(-3.01)"/>
          <ellipse class="cls-3" cx="450.56" cy="33.2" rx="16.87" ry="21.09" transform="translate(-1.12 23.7) rotate(-3.01)"/>
        </g>
      </g>
    </g>
  </g>
</svg>
