<?xml version="1.0" encoding="UTF-8"?>
<svg xmlns="http://www.w3.org/2000/svg" xmlns:xlink="http://www.w3.org/1999/xlink" viewBox="0 0 358.06 179.88" preserveAspectRatio="none">
  <defs>
    <style>
      .cls-1 {
        fill: url(#radial-gradient-4);
      }

      .cls-1, .cls-2, .cls-3, .cls-4, .cls-5 {
        mix-blend-mode: screen;
      }

      .cls-2 {
        fill: url(#radial-gradient-5);
      }

      .cls-3 {
        fill: url(#radial-gradient-3);
      }

      .cls-4 {
        fill: url(#radial-gradient-2);
      }

      .cls-6 {
        fill: #a5a797;
      }

      .cls-7 {
        fill: url(#Gradient_2-3);
      }

      .cls-8 {
        fill: url(#Gradient_2-7);
      }

      .cls-9 {
        fill: url(#Gradient_2-5);
      }

      .cls-10 {
        fill: url(#Gradient_2-2);
      }

      .cls-11 {
        fill: url(#Gradient_2-4);
      }

      .cls-12 {
        fill: url(#Gradient_2-6);
      }

      .cls-13 {
        fill: url(#Gradient_2-9);
      }

      .cls-14 {
        fill: url(#Gradient_2-8);
      }

      .cls-15 {
        fill: #366fbe;
      }

      .cls-15, .cls-16, .cls-17 {
        mix-blend-mode: multiply;
      }

      .cls-15, .cls-17, .cls-18 {
        opacity: .5;
      }

      .cls-19 {
        fill: url(#linear-gradient-8);
      }

      .cls-20 {
        fill: url(#linear-gradient-7);
      }

      .cls-21 {
        fill: url(#linear-gradient-5);
      }

      .cls-22 {
        fill: url(#linear-gradient-6);
      }

      .cls-23 {
        fill: url(#linear-gradient-9);
      }

      .cls-24 {
        fill: url(#linear-gradient-4);
      }

      .cls-25 {
        fill: url(#linear-gradient-3);
      }

      .cls-26 {
        fill: url(#linear-gradient-2);
      }

      .cls-27 {
        fill: url(#linear-gradient);
      }

      .cls-28 {
        fill: #3a4722;
      }

      .cls-29 {
        fill: #52f2f6;
      }

      .cls-30 {
        isolation: isolate;
      }

      .cls-31 {
        fill: #081a08;
      }

      .cls-5 {
        fill: url(#radial-gradient);
      }

      .cls-16 {
        opacity: .3;
      }

      .cls-16, .cls-17 {
        fill: #327470;
      }

      .cls-32 {
        fill: #505435;
      }

      .cls-33 {
        fill: #5e6144;
      }

      .cls-34 {
        fill: url(#linear-gradient-10);
      }

      .cls-35 {
        fill: url(#linear-gradient-11);
      }

      .cls-36 {
        fill: url(#linear-gradient-12);
      }

      .cls-37 {
        fill: url(#linear-gradient-13);
      }

      .cls-38 {
        fill: url(#linear-gradient-14);
      }

      .cls-39 {
        fill: url(#linear-gradient-15);
      }

      .cls-40 {
        fill: url(#linear-gradient-16);
      }

      .cls-41 {
        fill: url(#linear-gradient-17);
      }

      .cls-18 {
        fill: #ffd720;
      }

      .cls-18, .cls-42 {
        mix-blend-mode: soft-light;
      }

      .cls-43 {
        fill: #6d7056;
      }

      .cls-44 {
        fill: url(#Gradient_2-15);
      }

      .cls-45 {
        fill: url(#Gradient_2-14);
      }

      .cls-46 {
        fill: url(#Gradient_2-11);
      }

      .cls-47 {
        fill: url(#Gradient_2-10);
      }

      .cls-48 {
        fill: url(#Gradient_2-13);
      }

      .cls-49 {
        fill: url(#Gradient_2-12);
      }

      .cls-50 {
        fill: url(#Gradient_2-17);
      }

      .cls-51 {
        fill: url(#Gradient_2-16);
      }

      .cls-52 {
        fill: url(#Gradient_2-18);
      }

      .cls-53 {
        fill: #434c2d;
      }

      .cls-54 {
        fill: #0f2010;
      }

      .cls-55 {
        fill: url(#Gradient_2);
      }
    </style>
    <linearGradient id="Gradient_2" data-name="Gradient 2" x1="102.43" y1="89.66" x2="102.43" y2="18.73" gradientUnits="userSpaceOnUse">
      <stop offset="0" stop-color="#183219"/>
      <stop offset="1" stop-color="#39452b"/>
    </linearGradient>
    <linearGradient id="Gradient_2-2" data-name="Gradient 2" x1="-313.94" y1="89.66" x2="-313.94" y2="18.73" gradientTransform="translate(-59.04) rotate(-180) scale(1 -1)" xlink:href="#Gradient_2"/>
    <linearGradient id="Gradient_2-3" data-name="Gradient 2" x1="102.43" y1="245.93" x2="102.43" y2="174.99" gradientTransform="translate(0 335.59) scale(1 -1)" xlink:href="#Gradient_2"/>
    <linearGradient id="Gradient_2-4" data-name="Gradient 2" x1="-313.94" y1="245.93" x2="-313.94" y2="174.99" gradientTransform="translate(-59.04 335.59) rotate(-180)" xlink:href="#Gradient_2"/>
    <linearGradient id="Gradient_2-5" data-name="Gradient 2" x1="98.03" y1="179.88" x2="98.03" y2="152.2" xlink:href="#Gradient_2"/>
    <linearGradient id="Gradient_2-6" data-name="Gradient 2" x1="-106.55" y1="179.88" x2="-106.55" y2="152.2" gradientTransform="translate(152.75) rotate(-180) scale(1 -1)" xlink:href="#Gradient_2"/>
    <linearGradient id="Gradient_2-7" data-name="Gradient 2" x1="21.67" y1="152.83" x2="21.67" y2="99.91" xlink:href="#Gradient_2"/>
    <linearGradient id="Gradient_2-8" data-name="Gradient 2" x1="62.29" y1="18.96" x2="62.29" y2="14.16" xlink:href="#Gradient_2"/>
    <linearGradient id="Gradient_2-9" data-name="Gradient 2" x1="21.67" y1="46.16" x2="21.67" y2="2.3" xlink:href="#Gradient_2"/>
    <linearGradient id="Gradient_2-10" data-name="Gradient 2" x1="20.64" y1="69.07" x2="20.64" y2="25.41" xlink:href="#Gradient_2"/>
    <linearGradient id="linear-gradient" x1="22.71" y1="144.81" x2="22.71" y2="110.81" gradientUnits="userSpaceOnUse">
      <stop offset="0" stop-color="#4bfff7"/>
      <stop offset="1" stop-color="#33d5ff"/>
    </linearGradient>
    <linearGradient id="linear-gradient-2" x1="86.24" y1="160.15" x2="86.24" y2="156.42" xlink:href="#linear-gradient"/>
    <linearGradient id="linear-gradient-3" x1="97.39" y1="160.15" x2="97.39" y2="156.47" xlink:href="#linear-gradient"/>
    <linearGradient id="linear-gradient-4" x1="178.6" y1="168.04" x2="178.6" y2="160.87" xlink:href="#linear-gradient"/>
    <linearGradient id="linear-gradient-5" x1="12.93" y1="32.66" x2="12.93" y2="11.95" xlink:href="#linear-gradient"/>
    <linearGradient id="Gradient_2-11" data-name="Gradient 2" x1="126.29" y1="19.01" x2="126.29" y2=".34" xlink:href="#Gradient_2"/>
    <linearGradient id="Gradient_2-12" data-name="Gradient 2" x1="-223.72" y1="152.83" x2="-223.72" y2="99.91" gradientTransform="translate(111.93) rotate(-180) scale(1 -1)" xlink:href="#Gradient_2"/>
    <linearGradient id="Gradient_2-13" data-name="Gradient 2" x1="-183.1" y1="18.96" x2="-183.1" y2="14.16" gradientTransform="translate(111.93) rotate(-180) scale(1 -1)" xlink:href="#Gradient_2"/>
    <linearGradient id="Gradient_2-14" data-name="Gradient 2" x1="-223.72" y1="46.16" x2="-223.72" y2="2.3" gradientTransform="translate(111.93) rotate(-180) scale(1 -1)" xlink:href="#Gradient_2"/>
    <linearGradient id="Gradient_2-15" data-name="Gradient 2" x1="-224.75" y1="69.07" x2="-224.75" y2="25.41" gradientTransform="translate(111.93) rotate(-180) scale(1 -1)" xlink:href="#Gradient_2"/>
    <linearGradient id="linear-gradient-6" x1="-222.68" y1="144.81" x2="-222.68" y2="110.81" gradientTransform="translate(111.93) rotate(-180) scale(1 -1)" xlink:href="#linear-gradient"/>
    <linearGradient id="linear-gradient-7" x1="-159.15" y1="160.15" x2="-159.15" y2="156.42" gradientTransform="translate(111.93) rotate(-180) scale(1 -1)" xlink:href="#linear-gradient"/>
    <linearGradient id="linear-gradient-8" x1="-148.01" y1="160.15" x2="-148.01" y2="156.47" gradientTransform="translate(111.93) rotate(-180) scale(1 -1)" xlink:href="#linear-gradient"/>
    <linearGradient id="linear-gradient-9" x1="-232.47" y1="32.66" x2="-232.47" y2="11.95" gradientTransform="translate(111.93) rotate(-180) scale(1 -1)" xlink:href="#linear-gradient"/>
    <linearGradient id="Gradient_2-16" data-name="Gradient 2" x1="-119.1" y1="19.01" x2="-119.1" y2=".34" gradientTransform="translate(111.93) rotate(-180) scale(1 -1)" xlink:href="#Gradient_2"/>
    <linearGradient id="linear-gradient-10" x1="114.84" y1="22.84" x2="114.84" y2="20.8" xlink:href="#linear-gradient"/>
    <linearGradient id="linear-gradient-11" x1="-419.77" y1="22.84" x2="-419.77" y2="20.8" gradientTransform="translate(-176.58) rotate(-180) scale(1 -1)" xlink:href="#linear-gradient"/>
    <linearGradient id="linear-gradient-12" x1="83.29" y1="21.87" x2="146.02" y2="21.87" xlink:href="#linear-gradient"/>
    <linearGradient id="linear-gradient-13" x1="212.47" y1="21.72" x2="273.34" y2="21.72" xlink:href="#linear-gradient"/>
    <linearGradient id="linear-gradient-14" x1="329.25" y1="107.76" x2="329.25" y2="66.36" xlink:href="#linear-gradient"/>
    <linearGradient id="linear-gradient-15" x1="-800.14" y1="107.76" x2="-800.14" y2="66.36" gradientTransform="translate(-771.82) rotate(-180) scale(1 -1)" xlink:href="#linear-gradient"/>
    <linearGradient id="Gradient_2-17" data-name="Gradient 2" x1="330.02" y1="177.17" x2="330.02" y2="160.6" xlink:href="#Gradient_2"/>
    <linearGradient id="Gradient_2-18" data-name="Gradient 2" x1="-808.29" y1="177.17" x2="-808.29" y2="160.6" gradientTransform="translate(-780.77) rotate(-180) scale(1 -1)" xlink:href="#Gradient_2"/>
    <linearGradient id="linear-gradient-16" x1="41.48" y1="178.95" x2="41.48" y2="172.76" xlink:href="#linear-gradient"/>
    <linearGradient id="linear-gradient-17" x1="-354.59" y1="178.95" x2="-354.59" y2="172.76" gradientTransform="translate(-38.69) rotate(-180) scale(1 -1)" xlink:href="#linear-gradient"/>
    <radialGradient id="radial-gradient" cx="16.36" cy="161.12" fx="16.36" fy="161.12" r="15.87" gradientTransform="translate(14.06 -56.28) rotate(3.54) scale(.99 1.14) skewX(1)" gradientUnits="userSpaceOnUse">
      <stop offset="0" stop-color="#68e6ff"/>
      <stop offset=".01" stop-color="#65e1f9"/>
      <stop offset=".18" stop-color="#4ba6b8"/>
      <stop offset=".34" stop-color="#347380"/>
      <stop offset=".49" stop-color="#214a52"/>
      <stop offset=".64" stop-color="#12292e"/>
      <stop offset=".78" stop-color="#081214"/>
      <stop offset=".9" stop-color="#020405"/>
      <stop offset="1" stop-color="#000"/>
    </radialGradient>
    <radialGradient id="radial-gradient-2" cx="332.52" cy="167.22" fx="332.52" fy="167.22" r="15.85" gradientTransform="translate(15.16 -82.5) rotate(3.54) scale(.99 1.14) skewX(1)" xlink:href="#radial-gradient"/>
    <radialGradient id="radial-gradient-3" cx="-114.32" cy="404.64" fx="-114.32" fy="404.64" r="19.26" gradientTransform="translate(520.09 78.72) rotate(-1.27) scale(3.02 .2) skewX(.06)" xlink:href="#radial-gradient"/>
    <radialGradient id="radial-gradient-4" cx="11.46" cy="69.15" fx="11.46" fy="69.15" r="13.06" gradientTransform="translate(-1.34 -55) rotate(-1.27) scale(.99 1.14) skewX(1)" xlink:href="#radial-gradient"/>
    <radialGradient id="radial-gradient-5" cx="347.08" cy="75.6" fx="347.08" fy="75.6" r="13.06" gradientTransform="translate(-1.34 -55) rotate(-1.27) scale(.99 1.14) skewX(1)" xlink:href="#radial-gradient"/>
  </defs>
  <g class="cls-30">
    <g id="Calque_2">
      <g id="objects">
        <g>
          <g>
            <path class="cls-55" d="M178.66,19.01s-140.41-.09-140.87-.28-10.73,5.63-11.34,6.68c-.6,1.05,0,64.26,0,64.26h6.92l.1-26.49s-3.24-9.24-3.69-12.27c-.45-3.03-.76-23.87-.38-24.57.38-.7,8.16-5.18,9.45-5.41s35.42-.06,36.12.17c.71.23,4.43,2.64,5.44,2.95,1.01.31,66.81.67,68.62.37,1.81-.29,4.38-2.86,5.14-3.21s24.49,0,24.49,0v-2.2Z"/>
            <path class="cls-10" d="M178.66,19.01s140.41-.09,140.87-.28c.45-.19,10.73,5.63,11.34,6.68.6,1.05,0,64.26,0,64.26h-6.92l-.1-26.49s3.24-9.24,3.69-12.27c.45-3.03.76-23.87.38-24.57s-8.16-5.18-9.45-5.41c-1.28-.23-35.42-.06-36.12.17-.71.23-4.43,2.64-5.44,2.95-1.01.31-66.81.67-68.62.37-1.81-.29-4.38-2.86-5.14-3.21-.76-.35-24.49,0-24.49,0v-2.2Z"/>
            <path class="cls-7" d="M178.66,160.32s-140.41.09-140.87.28-10.73-5.63-11.34-6.68c-.6-1.05,0-64.26,0-64.26h6.92l.1,26.49s-3.24,9.24-3.69,12.27c-.45,3.03-.76,23.87-.38,24.57.38.7,8.16,5.18,9.45,5.41s35.42.06,36.12-.17c.71-.23,4.43-2.64,5.44-2.95,1.01-.31,66.81-.67,68.62-.37,1.81.29,4.38,2.86,5.14,3.21s24.49,0,24.49,0v2.2Z"/>
            <path class="cls-11" d="M178.66,160.32s140.41.09,140.87.28c.45.19,10.73-5.63,11.34-6.68.6-1.05,0-64.26,0-64.26h-6.92l-.1,26.49s3.24,9.24,3.69,12.27c.45,3.03.76,23.87.38,24.57s-8.16,5.18-9.45,5.41c-1.28.23-35.42.06-36.12-.17-.71-.23-4.43-2.64-5.44-2.95-1.01-.31-66.81-.67-68.62-.37-1.81.29-4.38,2.86-5.14,3.21-.76.35-24.49,0-24.49,0v2.2Z"/>
            <path class="cls-9" d="M39.16,160.01s-9.22-5.59-10.58-6.4c-1.36-.82-11.18-1.41-11.18-1.41,0,0,30.88,26.51,32.29,27.31,1.41.8,128.98.06,128.98.06v-12.3s-21.56.31-27.81-.16c-6.25-.47-14.26-6.76-14.26-6.76l-97.44-.34Z"/>
            <path class="cls-12" d="M318.17,160.01s9.22-5.59,10.58-6.4c1.36-.82,11.18-1.41,11.18-1.41,0,0-30.88,26.51-32.29,27.31-1.41.8-128.98.06-128.98.06v-12.3s21.56.31,27.81-.16c6.25-.47,14.36-6.9,14.36-6.9l97.34-.2Z"/>
            <path class="cls-54" d="M208.74,175.49s16.32-10.36,18.29-11.29c1.96-.93,88.87,0,88.87,0,0,0-10.58,10.95-12.24,11.64s-94.92-.35-94.92-.35Z"/>
            <path class="cls-54" d="M148.83,175.49s-16.32-10.36-18.29-11.29c-1.96-.93-88.87,0-88.87,0,0,0,10.58,10.95,12.24,11.64s94.92-.35,94.92-.35Z"/>
            <path class="cls-29" d="M136.6,160.35l84.24-.14s-9.07,6.67-11.49,7.48c-2.42.82-58.04,0-59.93,0s-12.82-7.34-12.82-7.34Z"/>
            <path class="cls-8" d="M26.35,152.83s-7.4-4.29-8.96-7.58c-1.56-3.29-1.56-45.34-1.56-45.34,0,0,9.47,10.58,11.69,11.18l-1.17,41.74Z"/>
            <path class="cls-29" d="M24.8,146.29s-4.13-.91-5.04-4.25c-.91-3.34-.4-33.03-.4-33.03,0,0,4.73,4.34,5.63,6.98.91,2.64-.19,30.3-.19,30.3Z"/>
            <path class="cls-32" d="M15.83,99.91l10.51,3.94-.03,4.22,3.57,3.61s-1.81-.12-3.22-.74c-1.41-.62-9.17-8.37-10.83-11.03Z"/>
            <path class="cls-32" d="M17.39,152.2l5.91-1.33s2.54,1.65,3.05,1.96,4.78,2.32,4.78,2.32c0,0-9.05.3-13.74-2.95Z"/>
            <path class="cls-54" d="M14.82,69.07s8.76-6.05,11.37-6.81c2.61-.76,6.01.41,6.01.41,0,0-3.86-2.64-6.01-2.6-2.15.04-8.12,3.94-11.37,9Z"/>
            <path class="cls-14" d="M49.49,18.96l-6.83-4.68s29.41-.29,30.11,0c.71.29,9.17,4.62,9.17,4.62l-32.45.06Z"/>
            <path class="cls-13" d="M15.83,46.16c.22-3.42-10.28-16.73-10.28-20.08V2.3s13.35,14.72,15.59,15.54,16.65.89,16.65.89c0,0-12.8,6.1-18.41,13.26-3.79,4.85-3.56,14.17-3.56,14.17Z"/>
            <path class="cls-47" d="M26.46,25.41s-8.97,6.9-10.03,11.44c-.89,3.84-1.61,32.22-1.61,32.22,0,0,6.72-8.34,11.37-9l.27-34.66Z"/>
            <path class="cls-54" d="M17.54,61.27s.68-20.38,1.59-23c.91-2.62,4.76-7.22,4.76-7.22l-.45,24.74s-4.16,2.74-5.89,5.47Z"/>
            <path class="cls-33" d="M15.83,45.04s.53-8.3,2.58-11.25c2.05-2.95,8.05-8.38,8.05-8.38,0,0-8.36,6.09-9.32,8.07-.96,1.98-1.31,11.56-1.31,11.56Z"/>
            <path class="cls-29" d="M14.82,34.95s-5.46-6.63-6.22-8.9c-.76-2.27.09-15.38.09-15.38,0,0,6.15,7.39,7.13,8.67.98,1.28-1.01,15.6-1.01,15.6Z"/>
            <path class="cls-33" d="M5.55,2.3s20.76,14.14,22.42,14.84c1.66.7,14.68,1.65,14.68,1.65,0,0-18.66.1-21.51-.95-2.85-1.05-15.59-15.54-15.59-15.54Z"/>
            <path class="cls-33" d="M72.76,14.29l20.2,4.64-16.04.02s-3.46-2-4.16-4.66Z"/>
            <path class="cls-54" d="M208.29,154.91s-1.01-.15-5.64,3.27h7.56s.3-2.59-1.91-3.27Z"/>
            <path class="cls-54" d="M148.95,154.91s1.01-.15,5.64,3.27h-7.56s-.3-2.59,1.91-3.27Z"/>
            <path class="cls-27" d="M24.99,115.99s-2.13-4.3-4.47-5.18c0,0-.34,25.21.27,28.93.6,3.73,4.05,5.07,4.05,5.07l.15-28.83Z"/>
            <path class="cls-29" d="M78.75,160.15s4.99-3.81,5.97-3.98c.98-.17,8.46,0,8.46,0l-5.93,3.98h-8.51Z"/>
            <path class="cls-29" d="M89.94,160.15s4.99-3.81,5.97-3.98c.98-.17,8.46,0,8.46,0l-5.93,3.98h-8.51Z"/>
            <path class="cls-26" d="M79.74,160.15s4.38-3.37,5.52-3.6c1.13-.23,7.49-.08,7.49-.08l-5.48,3.68h-7.52Z"/>
            <path class="cls-25" d="M90.92,160.15s4.72-3.31,5.37-3.55c.64-.23,7.56-.08,7.56-.08l-5.4,3.63h-7.52Z"/>
            <path class="cls-24" d="M138.16,161.52s50.43-1.47,80.89,0c0,0-8.71,6.04-9.7,6.17-.99.13-57.97.71-59.93,0-1.96-.71-11.26-6.17-11.26-6.17Z"/>
            <path class="cls-21" d="M9.76,11.95s.38,12.41.78,13.46c.4,1.05,4.58,7.25,4.58,7.25,0,0,.98-10.82.98-13.07,0-1.59-6.35-7.64-6.35-7.64Z"/>
            <path class="cls-46" d="M80.5,18.83c1.76,0-6.57-14.77-6.57-14.77l40.64.67S109.15,0,110.51.35c1.36.35,68.15.35,68.15.35v18.31l-98.17-.18Z"/>
            <path class="cls-49" d="M330.98,152.83s7.4-4.29,8.96-7.58c1.56-3.29,1.56-45.34,1.56-45.34,0,0-9.47,10.58-11.69,11.18l1.17,41.74Z"/>
            <path class="cls-29" d="M332.53,146.29s4.13-.91,5.04-4.25c.91-3.34.4-33.03.4-33.03,0,0-4.73,4.34-5.63,6.98s.19,30.3.19,30.3Z"/>
            <path class="cls-32" d="M341.5,99.91l-10.51,3.94.03,4.22-3.57,3.61s1.81-.12,3.22-.74c1.41-.62,9.17-8.37,10.83-11.03Z"/>
            <path class="cls-32" d="M339.94,152.2l-5.91-1.33s-2.54,1.65-3.05,1.96-4.78,2.32-4.78,2.32c0,0,9.05.3,13.74-2.95Z"/>
            <path class="cls-54" d="M342.51,69.07s-8.76-6.05-11.37-6.81c-2.61-.76-6.01.41-6.01.41,0,0,3.86-2.64,6.01-2.6,2.15.04,8.12,3.94,11.37,9Z"/>
            <path class="cls-48" d="M307.84,18.96l6.83-4.68s-29.41-.29-30.11,0c-.71.29-9.17,4.62-9.17,4.62l32.45.06Z"/>
            <path class="cls-45" d="M341.5,46.16c-.22-3.42,10.28-16.73,10.28-20.08V2.3s-13.35,14.72-15.59,15.54-16.65.89-16.65.89c0,0,12.8,6.1,18.41,13.26,3.79,4.85,3.56,14.17,3.56,14.17Z"/>
            <path class="cls-44" d="M330.87,25.41s8.97,6.9,10.03,11.44c.89,3.84,1.61,32.22,1.61,32.22,0,0-6.72-8.34-11.37-9l-.27-34.66Z"/>
            <path class="cls-54" d="M339.78,61.27s-.68-20.38-1.59-23c-.91-2.62-4.76-7.22-4.76-7.22l.45,24.74s4.16,2.74,5.89,5.47Z"/>
            <path class="cls-33" d="M341.5,45.04s-.53-8.3-2.58-11.25c-2.05-2.95-8.05-8.38-8.05-8.38,0,0,8.36,6.09,9.32,8.07.96,1.98,1.31,11.56,1.31,11.56Z"/>
            <path class="cls-29" d="M342.51,34.95s5.46-6.63,6.22-8.9c.76-2.27-.09-15.38-.09-15.38,0,0-6.15,7.39-7.13,8.67-.98,1.28,1.01,15.6,1.01,15.6Z"/>
            <path class="cls-33" d="M351.78,2.3s-20.76,14.14-22.42,14.84c-1.66.7-14.68,1.65-14.68,1.65,0,0,18.66.1,21.51-.95,2.85-1.05,15.59-15.54,15.59-15.54Z"/>
            <path class="cls-33" d="M284.57,14.29l-20.2,4.64,16.04.02s3.46-2,4.16-4.66Z"/>
            <path class="cls-22" d="M332.34,115.99s2.13-4.3,4.47-5.18c0,0,.34,25.21-.27,28.93-.6,3.73-4.05,5.07-4.05,5.07l-.15-28.83Z"/>
            <path class="cls-29" d="M278.57,160.15s-4.99-3.81-5.97-3.98c-.98-.17-8.46,0-8.46,0l5.93,3.98h8.51Z"/>
            <path class="cls-29" d="M267.39,160.15s-4.99-3.81-5.97-3.98c-.98-.17-8.46,0-8.46,0l5.93,3.98h8.51Z"/>
            <path class="cls-20" d="M277.59,160.15s-4.38-3.37-5.52-3.6c-1.13-.23-7.49-.08-7.49-.08l5.48,3.68h7.52Z"/>
            <path class="cls-19" d="M266.4,160.15s-4.72-3.31-5.37-3.55c-.64-.23-7.56-.08-7.56-.08l5.4,3.63h7.52Z"/>
            <path class="cls-23" d="M347.57,11.95s-.38,12.41-.78,13.46c-.4,1.05-4.58,7.25-4.58,7.25,0,0-.98-10.82-.98-13.07,0-1.59,6.35-7.64,6.35-7.64Z"/>
            <path class="cls-51" d="M275.4,18.94c-1.76,0,8.01-14.89,8.01-14.89l-40.64.67S248.17,0,246.81.35c-1.36.35-68.15.35-68.15.35v18.31l96.73-.07Z"/>
            <path class="cls-54" d="M86.32,18.73s-5.9-11.6-5.6-12.3,36.26,0,36.26,0l61.68,12.59-92.34-.29Z"/>
            <path class="cls-54" d="M275.65,7.9c-1.33,3.29-5.17,10.82-5.17,10.82l-80.23.25-11.59.04h-.51l1.2-.24s0,0,0,0l60.48-12.34s35.95-.7,36.26,0c.06.13-.11.68-.44,1.47Z"/>
            <path class="cls-29" d="M79.44,20.11s3.55,2.74,3.85,2.74,62.88.23,63.63,0c.76-.23,3.63-2.74,3.63-2.74h-71.11Z"/>
            <path class="cls-34" d="M81.33,20.8s2.12,1.86,2.49,1.98c.38.12,60.99,0,61.74,0s2.8-1.98,2.8-1.98h-67.03Z"/>
            <path class="cls-29" d="M278.6,20.11s-3.55,2.74-3.85,2.74-62.88.23-63.63,0-3.63-2.74-3.63-2.74h71.11Z"/>
            <path class="cls-35" d="M276.71,20.8s-2.12,1.86-2.49,1.98c-.38.12-60.99,0-61.74,0s-2.8-1.98-2.8-1.98h67.03Z"/>
            <path class="cls-54" d="M29.79,128.42s.05-12.6.1-13.07c.05-.47,1.71-6.35,1.71-6.35l1.88-45.83v52.98l-3.69,12.27Z"/>
            <path class="cls-32" d="M33.48,63.83s-6.87-4.77-7.02-5.12c-.15-.35,3.22-8.84,3.22-8.84,0,0,3.87,12.91,3.8,13.96Z"/>
            <path class="cls-54" d="M29.25,34.41l-.82-6.85-1.96.35s11.03-7.39,11.64-7.8c.6-.41,26.98.78,26.98.78,0,0-25.32.03-26.22.03s-9.07,5.07-9.45,5.41c-.38.35-.16,8.07-.16,8.07Z"/>
            <path class="cls-16" d="M18,32.36s1.4-11.11,2.64-11.89,16.36-1.46,16.36-1.46c0,0-12.29,6.3-18.99,13.35Z"/>
            <path class="cls-16" d="M21.15,17.84l7.08-.62s-8.5-5.21-10.22-6.25c-1.72-1.05-6.91-2.72-6.91-2.72,0,0,6,7.34,10.05,9.59Z"/>
            <path class="cls-53" d="M44.35,14.27s3.34.96,9.42,1.18c9.98.37,18.99-1.17,18.99-1.17l-28.42-.02Z"/>
            <path class="cls-54" d="M24.39,158.19s22.77,16.97,28.82,19.28c6.05,2.31,123.44,2.1,123.44,2.1l-126.96-.07-25.29-21.31Z"/>
            <path class="cls-17" d="M43.46,166.04s81.49-1.61,86.08-.67c4.59.94,15.27,10.17,15.27,10.17l4.02-.04s-15.63-10.25-18.29-11.29c-2.66-1.05-88.87,0-88.87,0l1.79,1.84Z"/>
            <path class="cls-17" d="M314.11,166.04s-81.49-1.61-86.08-.67-15.27,10.17-15.27,10.17l-4.02-.04s15.63-10.25,18.29-11.29c2.66-1.05,88.87,0,88.87,0l-1.79,1.84Z"/>
            <path class="cls-32" d="M43.31,160.21s9.07,2.93,17.84,3.57c8.77.65,65.67-.4,67.79-.52,2.12-.12,6.2-2.67,6.2-2.67l-91.82-.39Z"/>
            <path class="cls-32" d="M82.33,155.15s20.66.78,32.95.93,31.74-1.24,31.74-1.24l-64.69.31Z"/>
            <path class="cls-32" d="M32.57,155.15s5.91,2.88,6.97,2.96c1.06.09,25.16.32,25.16.32,0,0-25.24.4-25.77.35s-6.36-3.63-6.36-3.63Z"/>
            <path class="cls-16" d="M149.64,169.94c-1.87-.02,7.25,6.14,7.25,6.14h47.91s4.38-4.13,4.69-5.25c.3-1.12-56.98-.87-59.85-.89Z"/>
            <path class="cls-32" d="M149.42,167.69s4.46,1.2,29.3,1.2,30.63-1.2,30.63-1.2c0,0-31.59.6-59.93,0Z"/>
            <path class="cls-32" d="M53.42,175.54s-5.44,2.44,39.77,1.82c45.21-.62,56.2-1.82,56.2-1.82,0,0-89.02,1.85-95.97,0Z"/>
            <path class="cls-32" d="M17.63,58.94s4.22-2.38,4.94-2.85c.72-.47,1.02-8.35,1.02-8.35v8.27s-5.44,3.49-6.04,5.79l.09-2.86Z"/>
            <path class="cls-33" d="M27.62,59.65c-.02-1.21,3.56.28,4.02.86.46.58.74,2.55.74,2.55l-4.76-3.41Z"/>
            <path class="cls-33" d="M20.04,104.87s5.41,3.44,6.57,4.45c1.16,1.01,3.27,2.37,3.27,2.37,0,0-2.67-.27-3.53-.62-.86-.35-6.32-6.2-6.32-6.2Z"/>
            <path class="cls-33" d="M19.22,153.21s4.13-.73,5.46-.38,6.46,2.32,6.46,2.32c0,0-8.28-.16-11.92-1.94Z"/>
            <path class="cls-54" d="M26.19,62.26s2.8,3.09,3.8,6.35c1,3.26-.97,42.21-.97,42.21l-2.71-2.74-.12-45.82Z"/>
            <path class="cls-53" d="M28.8,64.57s1.31,3.69,1.38,5.55c.07,1.86,1.45,29.21,1.45,29.21,0,0,.95-25.95,1.18-29.8.23-3.84-2.11-6.52-2.53-6.7-.42-.17-1.7-.03-1.47,1.73Z"/>
            <path class="cls-54" d="M327.49,128.42s-.05-12.6-.1-13.07c-.05-.47-1.71-6.35-1.71-6.35l-1.88-45.83v52.98l3.69,12.27Z"/>
            <path class="cls-32" d="M323.8,63.83s6.87-4.77,7.02-5.12-3.22-8.84-3.22-8.84c0,0-3.87,12.91-3.8,13.96Z"/>
            <path class="cls-33" d="M329.66,59.65c.02-1.21-3.56.28-4.02.86-.46.58-.74,2.55-.74,2.55l4.76-3.41Z"/>
            <path class="cls-54" d="M331.09,62.26s-2.8,3.09-3.8,6.35c-1,3.26.97,42.21.97,42.21l2.71-2.74.12-45.82Z"/>
            <path class="cls-53" d="M328.47,64.57s-1.31,3.69-1.38,5.55c-.07,1.86-1.45,29.21-1.45,29.21,0,0-.95-25.95-1.18-29.8-.23-3.84,2.11-6.52,2.53-6.7.42-.17,1.7-.03,1.47,1.73Z"/>
            <path class="cls-33" d="M127.96,163.3c-.54-.38,5.97-1.99,5.97-1.99,0,0-1.06,2.43-2.04,2.43s-3.92-.43-3.92-.43Z"/>
            <path class="cls-33" d="M120.77,176.82s4.23-1.08,12.09-1.16c7.86-.08,14.16-.15,14.16-.15,0,0-14.46,1.58-26.25,1.3Z"/>
            <path class="cls-33" d="M147.04,158.18s10.67.82,30.01,1.01c19.35.19,33.15-1.01,33.15-1.01,0,0-52.27-.16-63.17,0Z"/>
            <path class="cls-32" d="M110.51.35s23.61,2.5,68.15,2.5S246.81.35,246.81.35c0,0-104.49-.8-136.3,0Z"/>
            <path class="cls-32" d="M73.92,4.05l40.64.67,8.68,1.4s-31.14,0-49.32-2.06Z"/>
            <path class="cls-32" d="M283.41,4.05l-40.64.67-9.29,1.79s39.2-1.18,49.93-2.45Z"/>
            <path class="cls-32" d="M208.74,175.49s82.68.93,94.92.35c0,0-15.97.82-47.46.82s-47.46-1.16-47.46-1.16Z"/>
            <path class="cls-33" d="M234.28,175.75s6.5.97,21.54.91c15.04-.06,18.67-.64,18.67-.64l-40.21-.27Z"/>
            <path class="cls-32" d="M220.83,160.21s7.99,3.41,10.43,3.52c2.43.12,80.21.19,82.63,0,2.42-.19,8.26-3.52,8.26-3.52h-101.32Z"/>
            <path class="cls-33" d="M223.54,161.31c.77-.67,13.62,1.84,13.62,1.84,0,0-9.67.87-10.66.58s-2.96-2.42-2.96-2.42Z"/>
            <path class="cls-33" d="M208.29,154.91l68.62.37s-43.33-1.4-68.62-.37Z"/>
            <path class="cls-33" d="M327.44,111.69s1.96-2.74,3.69-4.01c1.73-1.27,8.01-5.1,8.01-5.1,0,0-6.94,7.48-7.61,8.23-.66.75-4.1.87-4.1.87Z"/>
            <path class="cls-33" d="M329.81,154.91s2.09-1.72,4.81-1.89c2.71-.18,3.91,0,3.91,0,0,0-6.75,2.43-8.72,1.89Z"/>
            <path class="cls-54" d="M264.14,179.88s40.07-2.06,43.82-3.67c3.75-1.61,31.98-24.01,31.98-24.01l-32.29,27.31s-30.55.05-43.5.37Z"/>
            <path class="cls-16" d="M329.36,17.14s5.7.69,6.83.35c1.12-.34,8.22-7.82,8.22-7.82,0,0-5.24.3-15.04,7.47Z"/>
            <path class="cls-32" d="M333.73,47.24s.79,6.68,1.28,7.51c.5.83,4.77,4.52,4.77,4.52v2.61s-5.52-5.48-5.97-5.89c-.45-.41-.08-8.75-.08-8.75Z"/>
            <path class="cls-16" d="M324.35,19.72s15.46,11.78,15.79,11.85-.33-12.1-.99-12.16c-.66-.06-14.8.32-14.8.32Z"/>
            <path class="cls-53" d="M284.57,14.29s8.12.49,15.51.74c7.39.25,14.6-.74,14.6-.74h-30.11Z"/>
            <path class="cls-17" d="M275.65,7.9c-2.76-1.45-26.13-.51-34.51,0-8.1.49-48.25,10.42-50.89,11.07-.1.03-.14.04-.14.04h-11.45s.24-.09.68-.24c0,0,0,0,0,0l60.48-12.34s35.95-.7,36.26,0c.06.13-.11.68-.44,1.47Z"/>
            <path class="cls-17" d="M81.16,7.9c2.76-1.45,26.13-.51,34.51,0,8.1.49,48.25,10.42,50.89,11.07.1.03.14.04.14.04h11.45s-.24-.09-.68-.24c0,0,0,0,0,0l-60.48-12.34s-35.95-.7-36.26,0c-.06.13.11.68.44,1.47Z"/>
            <path class="cls-33" d="M86.32,18.73l91.83.29s-54.64-2.47-91.83-.29Z"/>
            <path class="cls-33" d="M179.01,19.01l91.48-.29s-42.05-1.75-91.48.29Z"/>
            <path class="cls-18" d="M148.83,166.78c-6.29-.96,10.64-6.14,34.12-5.91,23.48.22,25.78,4.91,25.79,5.91.01,1.01-47.74,1.87-59.91,0Z"/>
            <path class="cls-18" d="M21.12,140.98c-.84-3.7,2.07-15.54,3.14-17.7,1.07-2.16.58,21.53.58,21.53,0,0-3.33-2.1-3.72-3.83Z"/>
            <path class="cls-18" d="M332.49,144.81s.53-22.55.58-23.32c.05-.76,4.48,13.11,3.47,18.25-1.01,5.14-4.05,5.07-4.05,5.07Z"/>
            <path class="cls-18" d="M342.14,31.93s-.65-10.03,0-11.89c.65-1.87,4.95-3.95,4.95-3.95,0,0,.06,6.46-.22,8.96s-4.73,6.88-4.73,6.88Z"/>
            <path class="cls-18" d="M15.12,32.66s-4.3-6.23-4.36-8.43c-.06-2.19.77-6.61.77-6.61,0,0,3.36,3.16,4.02,6.61s-.44,8.43-.44,8.43Z"/>
            <path class="cls-36" d="M83.29,22.85s2.1-1.83,28.34-2.04,34.39,2.14,34.39,2.14l-62.73-.1Z"/>
            <path class="cls-37" d="M212.47,22.78s10.03-1.28,28.13-1.98c18.11-.7,32.74,1.34,32.74,1.34l-60.87.64Z"/>
            <path class="cls-43" d="M53.21,162.69c-.89.1-5.08,1.1-5.08,1.1l18,.16s-11.47-1.42-12.92-1.26Z"/>
            <path class="cls-43" d="M126.29,1.52s19.72,1.52,26.01,1.34c6.29-.18,21.5-.27,21.5-.27,0,0-26.73-2.47-47.51-1.07Z"/>
            <path class="cls-43" d="M283.51,163.85s8.02-.99,12.24-1.35c4.22-.37,14.55,1.35,14.55,1.35h-26.79Z"/>
            <g>
              <path class="cls-54" d="M26.22,43.9c-1.04-.23-1.42,2.66-.04,4.71,1.36,2.02,2.41-4.19.04-4.71Z"/>
              <path class="cls-15" d="M25.43,46.05c.45,1.61,1.84,1.43,2.08.5.24-.94-.4-2.82-1.42-2.65-1.02.16-.66,2.15-.66,2.15Z"/>
              <path class="cls-33" d="M25.61,47.48c-.03-1.02,1.16,0,1.67-.04.51-.04.19,1.69-.45,1.57-.64-.12-1.22-1.53-1.22-1.53Z"/>
            </g>
            <g>
              <path class="cls-54" d="M224.86.64c-.98-.03-1.79,1.55-.77,2.52,1,.96,2.99-2.47.77-2.52Z"/>
              <path class="cls-15" d="M223.76,1.86c.19.82,1.56.6,1.94.07.38-.52.05-1.47-.96-1.29-1.01.18-.98,1.21-.98,1.21Z"/>
              <path class="cls-33" d="M223.72,2.61c.13-.54,1.13-.11,1.62-.18.5-.07-.08.89-.68.88-.6,0-.94-.7-.94-.7Z"/>
            </g>
            <g>
              <path class="cls-54" d="M26.33,124.44c-1.04-.23-1.42,2.66-.04,4.71,1.36,2.02,2.41-4.19.04-4.71Z"/>
              <path class="cls-15" d="M25.54,126.58c.45,1.61,1.84,1.43,2.08.5.24-.94-.4-2.82-1.42-2.65-1.02.16-.66,2.15-.66,2.15Z"/>
              <path class="cls-33" d="M25.73,128.01c-.03-1.02,1.16,0,1.67-.04.51-.04.19,1.69-.45,1.57-.64-.12-1.22-1.53-1.22-1.53Z"/>
            </g>
            <g>
              <path class="cls-54" d="M340.44,14.25c-.79-.46-2.67.77-2.56,2.19.11,1.41,4.37-1.15,2.56-2.19Z"/>
              <path class="cls-15" d="M338.59,14.99c-.47.91.84,1.29,1.56.94.72-.36,1.16-1.46.18-1.72-.98-.27-1.74.79-1.74.79Z"/>
              <path class="cls-33" d="M337.98,15.72c.52-.48,1.02.39,1.49.54.47.15-.74.86-1.24.58-.5-.27-.25-1.13-.25-1.13Z"/>
            </g>
            <path class="cls-43" d="M212.38,156.09c-1.66.31,9.2.62,13.23.33,4.02-.29-11.24-.7-13.23-.33Z"/>
            <path class="cls-43" d="M133.9,155.83s3.03.47,6.39,0c3.36-.47-6.39,0-6.39,0Z"/>
            <g>
              <path class="cls-29" d="M330.22,65.3s-1.72,2.73-1.72,3.49.29,38.97.29,38.97c0,0,.99-2.17,1.43-3.18.44-1.02,0-39.28,0-39.28Z"/>
              <path class="cls-38" d="M329.59,66.36s.8,30.02.22,39.15l-1.02,2.25s-.39-38.51-.29-38.97c.11-.46,1.09-2.43,1.09-2.43Z"/>
            </g>
            <g>
              <path class="cls-29" d="M27.35,65.3s1.72,2.73,1.72,3.49-.29,38.97-.29,38.97c0,0-.99-2.17-1.43-3.18-.44-1.02,0-39.28,0-39.28Z"/>
              <path class="cls-39" d="M27.99,66.36s-.8,30.02-.22,39.15l1.02,2.25s.39-38.51.29-38.97-1.09-2.43-1.09-2.43Z"/>
            </g>
            <g>
              <path class="cls-50" d="M315.46,172.76s8.64,4.22,9.38,4.4c1.78.43,19.73-7.15,19.73-7.15l-14.59-9.41-14.52,12.15Z"/>
              <path class="cls-17" d="M332.34,162.12s-12.92,8.91-13.3,9.5c-.39.59,6.06,3.23,7.16,3.27,1.1.04,18.38-4.88,18.38-4.88,0,0-18.38,7.2-19.42,7.17-1.05-.03-9.69-4.42-9.69-4.42l14.52-12.15,2.36,1.52Z"/>
              <path class="cls-28" d="M322.76,173.76c-2.3-1.38-2.62-2.25-.31-4.31,2.31-2.05,19.05.48,19.05.48,0,0-14.01,5.29-15.3,4.96-1.29-.33-3.43-1.13-3.43-1.13Z"/>
              <path class="cls-43" d="M321.73,173.07s.99.13,2.04.38,1.27,1.1,1.27,1.1c0,0-2.76-.95-3.31-1.49Z"/>
            </g>
            <g>
              <path class="cls-52" d="M42.07,172.76s-8.64,4.22-9.38,4.4c-1.78.43-19.73-7.15-19.73-7.15l14.59-9.41,14.52,12.15Z"/>
              <path class="cls-17" d="M25.2,162.12s12.92,8.91,13.3,9.5c.39.59-6.06,3.23-7.16,3.27s-18.38-4.88-18.38-4.88c0,0,18.38,7.2,19.42,7.17,1.05-.03,9.69-4.42,9.69-4.42l-14.52-12.15-2.36,1.52Z"/>
              <path class="cls-28" d="M34.77,173.76c2.3-1.38,2.62-2.25.31-4.31-2.31-2.05-19.05.48-19.05.48,0,0,14.01,5.29,15.3,4.96s3.43-1.13,3.43-1.13Z"/>
              <path class="cls-43" d="M35.81,173.07s-.99.13-2.04.38-1.27,1.1-1.27,1.1c0,0,2.76-.95,3.31-1.49Z"/>
            </g>
            <path class="cls-16" d="M179.01,18.02c-4.04.36,17.43-13.73,24.72-14.69,7.29-.95,19.53-1.36,19.89,0s3.5-.87,3.5-.87l16.78-1.03s-1.96,2.24-2.48,2.94-52,12.72-62.42,13.65Z"/>
            <path class="cls-17" d="M17.95,51.72s1.25-11.46,2.13-12.87,3.81-3.63,3.81-3.63v-4.17s-3.9,5.2-4.85,7.52c-.95,2.32-1.1,13.15-1.1,13.15Z"/>
            <path class="cls-17" d="M333.59,41.95s.68-5.86,1.51-5.86,2.25,4.9,2.82,6.37c.57,1.46,1.38,7.77,1.38,7.77,0,0-.46-10.56-1.11-11.96-.64-1.4-4.76-7.22-4.76-7.22l.15,10.9Z"/>
            <g class="cls-42">
              <path class="cls-6" d="M87.24,17.82c-1.24-.9-3.72-7.66-2.31-8.93,1.41-1.27,26.56,3.31,29.73,4.78s-5.01,3.25-6.91,3.57-20.5.59-20.5.59Z"/>
              <path class="cls-6" d="M101.21,8.13c-.74.01,7.77,3.87,17.94,5.12,10.17,1.25,11.24-1.42,11.24-1.42,0,0-20.34-3.82-29.18-3.69Z"/>
              <path class="cls-6" d="M128,3.16c-5.54.45,3.47,5.53,14.14,7.38,10.67,1.85,6.61-5.09,5.13-5.98-1.49-.89-19.26-1.4-19.26-1.4Z"/>
              <path class="cls-6" d="M257.8,175.49c-1.8-.25,19.35-9.1,30.26-8.46,10.91.64,8.85,5.97,8.85,5.97,0,0-23.23,4.7-39.11,2.49Z"/>
              <path class="cls-6" d="M266.4,166.53c-4.03,2.18,4.51,2.09,7.05.48s-4.06-2.09-7.05-.48Z"/>
              <path class="cls-6" d="M58.2,174.22c-4.03,2.18,4.51,2.09,7.05.48,2.54-1.61-4.06-2.09-7.05-.48Z"/>
              <path class="cls-6" d="M107.09,161.7c-4.03,2.18,4.51,2.09,7.05.48,2.54-1.61-4.06-2.09-7.05-.48Z"/>
              <path class="cls-6" d="M225.39,160.15c-2.65-.88,12.24-4.07,18.11-4.32,5.87-.25,12.24,4.31,12.24,4.31h-30.34Z"/>
              <path class="cls-6" d="M123.29,158.66c-2.17,1.61,3.89.73,8.18,0,4.3-.73-7.58-.45-8.18,0Z"/>
              <path class="cls-6" d="M121.3,175.77c-2.65.02,9.34-4.72,13.23-4.4s5.12,3.28,4.46,3.76c-.66.48-17.69.65-17.69.65Z"/>
              <path class="cls-6" d="M25.61,28.62c-.95,1.1-.02,11.01.73,12.77.74,1.75,2.74,4.18,2.74,4.18,0,0-.96-16.12-1.44-16.95-.48-.83-2.02,0-2.02,0Z"/>
              <path class="cls-6" d="M31.63,22.82c-2.46,1.64.12,1.73,1.85-.51,1.73-2.24-1.85.51-1.85.51Z"/>
              <path class="cls-6" d="M262.43,10.85c-7.89,2.83,2.54,4.59,7.5,1.71,4.96-2.88-4.85-2.66-7.5-1.71Z"/>
              <path class="cls-6" d="M266.84,15.71c-1.89,1.84,1.32,1.19,2.65,0,1.32-1.19-1.98-.64-2.65,0Z"/>
            </g>
            <g>
              <path class="cls-17" d="M186.91,176.26c-2.16-1.36,4.58-4.24,9.92-4.71,5.34-.46,6.21,3.09,4.6,4.46-1.61,1.37-13.32,1-14.52.24Z"/>
              <path class="cls-17" d="M187.24,176.39c-1.22-.63,2.87-3.65,8.55-4.23s6.27,1.62,6.27,1.62c0,0-.24-2.38-4.71-2.26-4.47.11-8.48,2.08-10.11,3.09-1.63,1.01,0,1.78,0,1.78Z"/>
              <path class="cls-32" d="M188.11,176.57s5.09.32,8.81,0c3.73-.32,4.78-.85,4.78-.85,0,0-.52.73-2.75,1.22-2.24.49-9.8-.05-10.84-.36Z"/>
            </g>
            <g>
              <path class="cls-17" d="M162.15,175.94c-1.15-1.28-.91-3.98.15-4.42,1.05-.43,2.93,2.9,3.2,4.19.26,1.29-2.7.94-3.34.23Z"/>
              <path class="cls-17" d="M162.29,176.07c-.58-.59-1.03-3.42.04-3.97,1.08-.55,2.26,1.52,2.26,1.52,0,0-1.18-2.23-2.19-2.12s-1.04,1.95-.95,2.9.84,1.67.84,1.67Z"/>
              <path class="cls-32" d="M162.59,176.24s1.36.3,2.1,0c.74-.3.74-.8.74-.8,0,0,.22.68-.08,1.14-.3.46-2.36-.04-2.75-.34Z"/>
            </g>
            <g>
              <path class="cls-17" d="M215.69,8.32c-1.15-1.28-.91-3.98.15-4.42,1.05-.43,2.93,2.9,3.2,4.19.26,1.29-2.7.94-3.34.23Z"/>
              <path class="cls-17" d="M215.83,8.45c-.58-.59-1.03-3.42.04-3.97s2.26,1.52,2.26,1.52c0,0-1.18-2.23-2.19-2.12-1.01.11-1.04,1.95-.95,2.9s.84,1.67.84,1.67Z"/>
              <path class="cls-32" d="M216.12,8.62s1.36.3,2.1,0c.74-.3.74-.8.74-.8,0,0,.22.68-.08,1.14-.3.46-2.36-.04-2.75-.34Z"/>
            </g>
            <path class="cls-31" d="M39.53,158.12s-2.67,1.89-3.73,2.03,1.28,8.74,1.28,8.74l-1.56-1.61s-.41-5.69-.62-7.41-.02-.57,1.76-.8,2.39-1.07,2.39-1.07l.48.11Z"/>
            <path class="cls-32" d="M36.07,164.67s-.3-3.58-.11-3.9c.55-.91,1.74-1.47,1.74-1.47,0,0-1.36.49-1.84.72s-.05,3.33.21,4.64Z"/>
            <path class="cls-31" d="M114.56,4.72s16.47.78,20.33.37c3.86-.42,12.8-1.41,15.66-2.23s13.33-2.86,13.33-2.86h-1.93s-20.56,1.7-11.9,2.6c-1.13.63-11.46,1.4-17.03,1.98-5.57.58-18.45.13-18.45.13Z"/>
            <path class="cls-32" d="M135.95,4.97s8.97-.58,10.7-.92c1.74-.34,5.14-1.52,5.14-1.52,0,0-1.64.4-3.24.74-1.6.34-7.44,1.22-12.61,1.7Z"/>
            <path class="cls-32" d="M117.06,4.79s3.88,1.12,4.57,1.07c.69-.05,6.45-.68,6.45-.68,0,0-7.33-.08-11.02-.39Z"/>
            <path class="cls-29" d="M132.41,163.73l25.08,15.85,44.22.1,24.8-15.95s-24.37,14.17-26.35,14.68c-1.98.51-39.98.57-42.44,0-2.46-.57-25.3-14.68-25.3-14.68Z"/>
            <polygon class="cls-29" points="44.64 167.21 52.32 167.21 59.18 173.56 51.46 173.56 44.64 167.21"/>
            <polygon class="cls-29" points="312.93 167.21 305.24 167.21 298.39 173.56 306.11 173.56 312.93 167.21"/>
            <path class="cls-17" d="M298.62,173.56s5.61-4.37,7.03-4.91c1.42-.53,5.88-.15,5.88-.15l1.39-1.3h-7.69l-6.85,6.36h.24Z"/>
            <path class="cls-17" d="M58.94,173.56s-5.61-4.37-7.03-4.91c-1.42-.53-5.88-.15-5.88-.15l-1.39-1.3h7.69l6.85,6.36h-.24Z"/>
            <path class="cls-40" d="M33.94,176.58l15.08,2.37-6.95-6.19s-5.99,1.22-8.14,3.82Z"/>
            <path class="cls-41" d="M323.45,176.58l-15.08,2.37,6.95-6.19s5.99,1.22,8.14,3.82Z"/>
          </g>
          <ellipse class="cls-5" cx="21.67" cy="127.9" rx="15.7" ry="18.07" transform="translate(-10.64 2.27) rotate(-4.81)"/>
          <ellipse class="cls-4" cx="334.62" cy="127.92" rx="15.68" ry="18.05" transform="translate(-9.54 28.48) rotate(-4.81)"/>
          <path class="cls-3" d="M236.25,166.41c.08,2.14-25.88,4.45-57.98,5.16-32.1.71-58.19-.45-58.27-2.58-.08-2.14,25.88-4.45,57.98-5.16,32.1-.71,58.19.45,58.27,2.58Z"/>
          <path class="cls-1" d="M25.85,23.11c.31,8.2-5.23,14.98-12.36,15.14C6.35,38.41.32,31.89.01,23.69c-.31-8.2,5.23-14.98,12.36-15.14,7.13-.16,13.17,6.37,13.47,14.57Z"/>
          <path class="cls-2" d="M358.05,23.11c.31,8.2-5.23,14.98-12.36,15.14-7.13.16-13.17-6.37-13.47-14.57-.31-8.2,5.23-14.98,12.36-15.14,7.13-.16,13.17,6.37,13.47,14.57Z"/>
        </g>
      </g>
    </g>
  </g>
</svg>
