<?xml version="1.0" encoding="UTF-8"?>
<svg id="Calque_2" xmlns="http://www.w3.org/2000/svg" xmlns:xlink="http://www.w3.org/1999/xlink" viewBox="0 0 279.12 265.96">
  <defs>
    <style>
      .cls-1 {
        fill: url(#linear-gradient);
      }

      .cls-2 {
        fill: #00a8c1;
      }
    </style>
    <linearGradient id="linear-gradient" x1="54.91" y1="73.73" x2="225.17" y2="73.73" gradientUnits="userSpaceOnUse">
      <stop offset="0" stop-color="#00a2c1"/>
      <stop offset="1" stop-color="#005693"/>
    </linearGradient>
  </defs>
  <g id="Layer_1">
    <g>
      <g>
        <path class="cls-2" d="M74.37,230.7l4.47-6.13,1.37,1-4.47,6.13-1.37-1Z"/>
        <path class="cls-2" d="M79.31,234.15l4.12-6.36,1.42.92-4.12,6.36-1.42-.92Z"/>
        <path class="cls-2" d="M84.43,237.33l3.77-6.58,1.47.84-3.77,6.58-1.47-.84Z"/>
        <path class="cls-2" d="M89.73,240.22l3.39-6.78,1.52.76-3.39,6.78-1.52-.76Z"/>
        <path class="cls-2" d="M95.17,242.8l3.01-6.96,1.56.67-3.01,6.96-1.56-.67Z"/>
        <path class="cls-2" d="M100.76,245.09l2.62-7.12,1.59.59-2.62,7.12-1.59-.59Z"/>
        <path class="cls-2" d="M106.45,247.06l2.22-7.25,1.62.5-2.22,7.25-1.62-.5Z"/>
        <path class="cls-2" d="M112.24,248.71l1.82-7.36,1.65.41-1.82,7.36-1.65-.41Z"/>
        <path class="cls-2" d="M118.11,250.04l1.41-7.45,1.67.32-1.41,7.45-1.67-.32Z"/>
        <path class="cls-2" d="M124.06,251.04l1-7.52,1.68.22-1,7.52-1.68-.22Z"/>
        <path class="cls-2" d="M130.04,251.72l.59-7.56,1.69.13-.59,7.56-1.69-.13Z"/>
        <path class="cls-2" d="M136.06,252.07l.17-7.58,1.7.04-.17,7.58-1.7-.04Z"/>
        <path class="cls-2" d="M142.07,252.09l-.24-7.58,1.7-.05.24,7.58-1.7.05Z"/>
        <path class="cls-2" d="M148.1,251.78l-.66-7.56,1.69-.15.66,7.55-1.69.15Z"/>
        <path class="cls-2" d="M154.08,251.14l-1.07-7.51,1.68-.24,1.07,7.51-1.68.24Z"/>
        <path class="cls-2" d="M160.02,250.17l-1.48-7.44,1.66-.33,1.48,7.44-1.66.33Z"/>
        <path class="cls-2" d="M165.91,248.88l-1.88-7.35,1.64-.42,1.88,7.35-1.64.42Z"/>
        <path class="cls-2" d="M171.72,247.27l-2.29-7.23,1.62-.51,2.29,7.23-1.62.51Z"/>
        <path class="cls-2" d="M177.42,245.34l-2.68-7.09,1.59-.6,2.68,7.09-1.59.6Z"/>
        <path class="cls-2" d="M183.02,243.09l-3.07-6.93,1.55-.69,3.07,6.93-1.55.69Z"/>
        <path class="cls-2" d="M188.48,240.54l-3.45-6.75,1.51-.77,3.45,6.75-1.51.77Z"/>
        <path class="cls-2" d="M193.79,237.69l-3.82-6.55,1.47-.86,3.82,6.55-1.47.85Z"/>
        <path class="cls-2" d="M198.94,234.55l-4.18-6.33,1.42-.93,4.18,6.33-1.42.93Z"/>
        <path class="cls-2" d="M203.9,231.13l-4.52-6.09,1.36-1.01,4.52,6.09-1.36,1.01Z"/>
      </g>
      <g>
        <polygon class="cls-2" points="48.26 196.24 0 196.24 0 190.11 45.72 190.11 93.32 142.51 45.72 94.91 0 94.91 0 88.78 48.26 88.78 101.99 142.51 48.26 196.24"/>
        <polygon class="cls-2" points="279.12 196.24 230.86 196.24 177.12 142.51 230.86 88.78 279.12 88.78 279.12 94.91 233.4 94.91 185.8 142.51 233.4 190.11 279.12 190.11 279.12 196.24"/>
      </g>
      <path class="cls-2" d="M226.44,105.8c-3.56-8.42-8.27-16.19-14.05-23.2h-4.75c-16.64-18.88-40.99-30.82-68.07-30.82s-51.44,11.94-68.07,30.82h-4.75c-5.78,7.01-10.49,14.78-14.05,23.2-4.92,11.63-7.41,23.98-7.41,36.7s2.49,25.08,7.41,36.7c3.56,8.42,8.27,16.19,14.05,23.2h4.75c16.64,18.88,40.99,30.82,68.07,30.82s51.44-11.94,68.07-30.82h4.75c5.78-7.01,10.49-14.78,14.05-23.2,4.92-11.63,7.41-23.98,7.41-36.7s-2.49-25.08-7.41-36.7ZM139.56,230.18c-48.34,0-87.67-39.33-87.67-87.67s39.33-87.67,87.67-87.67,87.67,39.33,87.67,87.67-39.33,87.67-87.67,87.67Z"/>
      <path class="cls-2" d="M140.04,265.96c-68.07,0-123.46-55.38-123.46-123.45S71.97,19.05,140.04,19.05s123.46,55.38,123.46,123.46-55.38,123.45-123.46,123.45ZM140.04,23.65c-65.54,0-118.85,53.32-118.85,118.85s53.32,118.85,118.85,118.85,118.85-53.32,118.85-118.85S205.58,23.65,140.04,23.65Z"/>
      <path class="cls-2" d="M210.59,223.68c-.63,0-1.26-.26-1.71-.77-.85-.95-.77-2.4.18-3.25,8.85-7.92,16.21-17.2,21.89-27.6.61-1.12,2.01-1.52,3.12-.92,1.11.61,1.52,2.01.92,3.12-5.93,10.85-13.62,20.55-22.86,28.82-.44.39-.99.59-1.53.59Z"/>
      <path class="cls-2" d="M232.97,94.14c-.81,0-1.6-.43-2.02-1.2-9.16-16.76-22.76-30.67-39.32-40.21-1.1-.63-1.48-2.04-.85-3.14.63-1.1,2.04-1.48,3.14-.85,17.3,9.96,31.49,24.48,41.06,41.99.61,1.12.2,2.51-.92,3.12-.35.19-.73.28-1.1.28Z"/>
      <path class="cls-2" d="M46.64,95.03c-.37,0-.74-.09-1.08-.27-1.12-.6-1.54-1.99-.95-3.11,9.57-17.92,23.94-32.75,41.55-42.89,1.1-.63,2.51-.25,3.14.85s.26,2.51-.85,3.14c-16.86,9.71-30.62,23.92-39.79,41.07-.41.78-1.21,1.22-2.03,1.22Z"/>
      <path class="cls-2" d="M69.11,223.34c-.55,0-1.1-.2-1.54-.59-9.08-8.21-16.65-17.8-22.5-28.52-.61-1.12-.2-2.51.92-3.12,1.11-.61,2.51-.2,3.12.92,5.6,10.26,12.85,19.45,21.55,27.31.94.85,1.02,2.31.16,3.25-.45.5-1.08.76-1.71.76Z"/>
      <path class="cls-1" d="M140.04,147.45L54.91,0h170.27l-85.13,147.45ZM64.21,5.37l75.84,131.35L215.88,5.37H64.21Z"/>
      <g>
        <path class="cls-2" d="M39.66,100.32h-13.19c-4.9,13.14-7.58,27.36-7.58,42.19s2.62,28.75,7.43,41.78h13.18c-5.37-12.87-8.34-26.99-8.34-41.78s3.03-29.2,8.51-42.19Z"/>
        <path class="cls-2" d="M240.42,100.32c5.48,12.98,8.51,27.24,8.51,42.19s-2.97,28.91-8.34,41.78h13.18c4.8-13.03,7.43-27.1,7.43-41.78s-2.68-29.04-7.58-42.19h-13.19Z"/>
      </g>
      <path class="cls-2" d="M140.04,21.35c-19.1,0-37.19,4.45-53.27,12.36l6.15,10.66c14.27-6.88,30.25-10.75,47.12-10.75s32.85,3.87,47.12,10.75l6.15-10.66c-16.09-7.91-34.17-12.36-53.27-12.36Z"/>
      <path class="cls-2" d="M140.04,232.57c-1.06,0-1.92-.86-1.92-1.92v-73.05c0-1.06.86-1.92,1.92-1.92s1.92.86,1.92,1.92v73.05c0,1.06-.86,1.92-1.92,1.92Z"/>
    </g>
  </g>
</svg>