<?xml version="1.0" encoding="UTF-8"?>
<svg id="Calque_2" data-name="Calque 2" xmlns="http://www.w3.org/2000/svg" xmlns:xlink="http://www.w3.org/1999/xlink" viewBox="0 0 1001.46 140.26">
  <defs>
    <linearGradient id="Dégradé_sans_nom_4" data-name="Dégradé sans nom 4" x1="768.37" y1="112.09" x2="974.63" y2="112.09" gradientTransform="translate(0 139.89) scale(1 -1)" gradientUnits="userSpaceOnUse">
      <stop offset="0" stop-color="#00a2c1"/>
      <stop offset="1" stop-color="#005693"/>
    </linearGradient>
    <linearGradient id="Dégradé_sans_nom_4-2" data-name="Dégradé sans nom 4" x1="571.11" x2="777.38" xlink:href="#Dégradé_sans_nom_4"/>
    <linearGradient id="Dégradé_sans_nom_4-3" data-name="Dégradé sans nom 4" x1="455.01" x2="580.99" xlink:href="#Dégradé_sans_nom_4"/>
    <linearGradient id="Dégradé_sans_nom_5" data-name="Dégradé sans nom 5" x1="532.12" y1="14.64" x2="532.12" y2="114.69" gradientTransform="translate(0 139.89) scale(1 -1)" gradientUnits="userSpaceOnUse">
      <stop offset="0" stop-color="#00a8c1"/>
      <stop offset="1" stop-color="#00a8c1"/>
    </linearGradient>
  </defs>
  <g id="Calque_2-2" data-name="Calque 2">
    <g id="Layer_1" data-name="Layer 1">
      <g>
        <path d="M946.65,27.21h-497.51L411.6.68c-.62-.44-1.44-.68-2.3-.68H92.14c-.89,0-1.74.26-2.37.73L.98,67.08c-1.31.98-1.31,2.56,0,3.54l92.22,68.91c.63.47,1.48.73,2.37.73h510.5c6.9,0,13.39-2.01,18.28-5.66l22.93-17.14c7.2-5.38,16.76-8.34,26.93-8.34h272.44c30.22,0,54.81-18.38,54.81-40.96s-24.59-40.96-54.81-40.96h0ZM946.65,104.13h-272.44c-.99,0-1.97.03-2.95.08h-321.88c-5.92,0-11.6,1.76-15.79,4.89l-13.03,9.74c-4.19,3.13-9.87,4.89-15.79,4.89h-71.14c-5.92,0-11.6,1.76-15.79,4.89l-8.91,6.65h-112l-39.01-29.15c.11,0,.23.02.34.02h28.36c5.1,0,7.66-4.61,4.05-7.3l-30.35-22.68c-3.61-2.7-1.05-7.3,4.05-7.3h27.53c7.54,0,14.78-2.24,20.11-6.23L189.15,5h218.82l37.54,26.53c.62.44,1.44.68,2.3.68h498.85c26.53,0,48.12,16.13,48.12,35.96s-21.59,35.96-48.12,35.96h-.01Z" fill="#00a8c1"/>
        <path d="M973.61,15.51l-37.85,28.28c-.65.49-1.54.76-2.47.76h-161.43c-3.11,0-4.66-2.81-2.47-4.45l37.64-28.12c.65-.49,1.54-.76,2.46-.76l161.64-.16c3.11,0,4.67,2.81,2.47,4.45h0Z" fill="url(#Dégradé_sans_nom_4)"/>
        <path d="M776.34,15.51l-37.85,28.28c-.65.49-1.54.76-2.46.76h-161.43c-3.11,0-4.66-2.81-2.46-4.45l37.64-28.12c.65-.49,1.54-.76,2.46-.76l161.64-.16c3.11,0,4.67,2.81,2.47,4.45h-.01Z" fill="url(#Dégradé_sans_nom_4-2)"/>
        <path d="M579.95,15.51l-37.85,28.28c-.65.49-1.54.76-2.46.76h-81.14c-3.11,0-4.66-2.81-2.46-4.45l37.64-28.12c.65-.49,1.54-.76,2.46-.76l81.35-.16c3.11,0,4.67,2.81,2.47,4.45h0Z" fill="url(#Dégradé_sans_nom_4-3)"/>
        <path d="M955.63,43.09l-10.4,7.77c-3.19,2.38-7.42,3.69-11.93,3.69h-161.43c-6.85,0-12.96-3.05-15.58-7.78-.29-.53-.52-1.06-.72-1.6l-7.61,5.69c-3.19,2.38-7.42,3.69-11.93,3.69h-161.43c-6.85,0-12.97-3.05-15.59-7.78-.2-.36-.36-.72-.52-1.08l-6.92,5.17c-3.19,2.38-7.42,3.69-11.93,3.69h-81.14c-6.85,0-12.97-3.05-15.59-7.78-.98-1.76-1.39-3.62-1.27-5.44-1.96-.58-3.77-1.44-5.34-2.55l-33.66-23.79h-207.95l-73.2,54.7c-7.9,5.9-18.4,9.15-29.58,9.15h-9.04l17.28,12.91c5.48,4.1,7.11,10.21,4.14,15.56-2.53,4.57-7.95,7.76-14.31,8.6l12.5,9.34h100.91l4.99-3.73c6.74-5.04,15.71-7.82,25.25-7.82h71.14c2.35,0,4.66-.71,6.32-1.96l13.03-9.74c6.75-5.04,15.71-7.81,25.25-7.81h321.46c1.21-.05,2.32-.08,3.36-.08h272.44c19.16,0,34.74-11.65,34.74-25.96,0-12-10.95-22.11-25.77-25.08l.03.02Z" fill="url(#Dégradé_sans_nom_5)"/>
      </g>
    </g>
  </g>
  <g id="Calque_3" data-name="Calque 3">
    <path d="M955.63,43.09l-10.4,7.77c-3.19,2.38-7.42,3.69-11.93,3.69h-161.43c-6.85,0-12.96-3.05-15.58-7.78-.29-.53-.52-1.06-.72-1.6l-7.61,5.69c-3.19,2.38-7.42,3.69-11.93,3.69h-161.43c-6.85,0-12.97-3.05-15.59-7.78-.2-.36-.36-.72-.52-1.08l-6.92,5.17c-3.19,2.38-7.42,3.69-11.93,3.69h-81.14c-6.85,0-12.97-3.05-15.59-7.78-.98-1.76-1.39-3.62-1.27-5.44-1.96-.58-3.77-1.44-5.34-2.55l-33.66-23.79h-207.95l-73.2,54.7c-7.9,5.9-18.4,9.15-29.58,9.15h-9.04l17.28,12.91c5.48,4.1,7.11,10.21,4.14,15.56-2.53,4.57-7.95,7.76-14.31,8.6l12.5,9.34h100.91l4.99-3.73c6.74-5.04,15.71-7.82,25.25-7.82h71.14c2.35,0,4.66-.71,6.32-1.96l13.03-9.74c6.75-5.04,15.71-7.81,25.25-7.81h321.46c1.21-.05,2.32-.08,3.36-.08h272.44c19.16,0,34.74-11.65,34.74-25.96,0-12-10.95-22.11-25.77-25.08l.03.02Z" fill="#dd2f2f"/>
  </g>
</svg>