<?xml version="1.0" encoding="UTF-8"?>
<svg id="Calque_2" xmlns="http://www.w3.org/2000/svg" xmlns:xlink="http://www.w3.org/1999/xlink" viewBox="0 0 528.54 300.46">
  <defs>
    <style>
      .cls-1 {
        mask: url(#mask);
      }

      .cls-2 {
        filter: url(#luminosity-noclip);
      }

      .cls-3 {
        fill: url(#linear-gradient-3);
      }

      .cls-4 {
        mask: url(#mask-1);
      }

      .cls-5 {
        fill: url(#linear-gradient-2);
        opacity: .6;
      }

      .cls-6 {
        fill: #00a8c1;
      }

      .cls-7 {
        fill: url(#linear-gradient);
        mix-blend-mode: multiply;
      }

      .cls-8 {
        fill: #002540;
      }
    </style>
    <filter id="luminosity-noclip" x="58.62" y="47.55" width="450.27" height="201.51" color-interpolation-filters="sRGB" filterUnits="userSpaceOnUse">
      <feFlood flood-color="#fff" result="bg"/>
      <feBlend in="SourceGraphic" in2="bg"/>
    </filter>
    <filter id="luminosity-noclip-2" x="58.62" y="-8305.08" width="450.27" height="32766" color-interpolation-filters="sRGB" filterUnits="userSpaceOnUse">
      <feFlood flood-color="#fff" result="bg"/>
      <feBlend in="SourceGraphic" in2="bg"/>
    </filter>
    <mask id="mask-1" x="58.62" y="-8305.08" width="450.27" height="32766" maskUnits="userSpaceOnUse"/>
    <linearGradient id="linear-gradient" x1="283.76" y1="249.06" x2="283.76" y2="66.21" gradientUnits="userSpaceOnUse">
      <stop offset="0" stop-color="#fff"/>
      <stop offset="1" stop-color="#333"/>
    </linearGradient>
    <mask id="mask" x="58.62" y="47.55" width="450.27" height="201.51" maskUnits="userSpaceOnUse">
      <g class="cls-2">
        <g class="cls-4">
          <path class="cls-7" d="M82.16,213.25h145.95c6.03,0,11.69,2.1,15.95,5.9l30.32,27.09c2.03,1.82,4.73,2.82,7.61,2.82h136.5c3.55,0,6.45-2.58,6.45-5.76v-48.42c0-11.5,10.47-20.85,23.34-20.85h54.18c3.55,0,6.44-2.58,6.44-5.76v-100.18c0-3.18-2.89-5.76-6.44-5.76h-69.35c-6.03,0-11.69-2.1-15.95-5.91l-8.04-7.19c-1.22-1.09-2.84-1.69-4.56-1.69H58.62v92.56l10.48,9.37c4.26,3.81,6.61,8.87,6.61,14.25v43.75c0,3.18,2.89,5.76,6.44,5.76Z"/>
        </g>
      </g>
    </mask>
    <linearGradient id="linear-gradient-2" x1="283.76" y1="249.06" x2="283.76" y2="66.21" gradientUnits="userSpaceOnUse">
      <stop offset="0" stop-color="#00a8c1"/>
      <stop offset="1" stop-color="#00a8c1"/>
    </linearGradient>
    <linearGradient id="linear-gradient-3" x1="0" y1="150.23" x2="528.54" y2="150.23" gradientUnits="userSpaceOnUse">
      <stop offset="0" stop-color="#005693"/>
      <stop offset="1" stop-color="#00a2c1"/>
    </linearGradient>
  </defs>
  <g id="Layer_1">
    <g>
      <g class="cls-1">
        <path class="cls-5" d="M82.16,213.25h145.95c6.03,0,11.69,2.1,15.95,5.9l30.32,27.09c2.03,1.82,4.73,2.82,7.61,2.82h136.5c3.55,0,6.45-2.58,6.45-5.76v-48.42c0-11.5,10.47-20.85,23.34-20.85h54.18c3.55,0,6.44-2.58,6.44-5.76v-100.18c0-3.18-2.89-5.76-6.44-5.76h-69.35c-6.03,0-11.69-2.1-15.95-5.91l-8.04-7.19c-1.22-1.09-2.84-1.69-4.56-1.69H58.62v92.56l10.48,9.37c4.26,3.81,6.61,8.87,6.61,14.25v43.75c0,3.18,2.89,5.76,6.44,5.76Z"/>
      </g>
      <path class="cls-6" d="M469.56,279.35H36.73c-6.66,0-12.08-4.84-12.08-10.79v-125.3c0-2.68,1.17-5.2,3.29-7.09l16.73-14.95,2.78,2.48-16.73,14.95c-1.38,1.23-2.14,2.87-2.14,4.61v125.3c0,4.02,3.66,7.28,8.15,7.28h432.83c1.95,0,3.78-.68,5.16-1.91l16.73-14.95,2.78,2.48-16.73,14.95c-2.12,1.89-4.94,2.94-7.93,2.94Z"/>
      <path class="cls-3" d="M509.99.35h-5.53c-1.32-.23-2.68-.35-4.07-.35h-228.59c-3.9,0-7.64,1.38-10.4,3.85l-22.41,20.03c-4.39,3.92-10.34,6.13-16.55,6.13H57.53c-10.24,0-18.54,7.42-18.54,16.57v47.42L6.2,123.29c-3.97,3.54-6.2,8.35-6.2,13.37v147.42c0,9.05,8.21,16.38,18.33,16.38h326.29c5.65,0,10.96-1.97,14.96-5.54l31.69-28.32h118.72c10.24,0,18.54-7.42,18.54-16.57V16.92c0-9.15-8.3-16.57-18.54-16.57ZM57.53,40.53h347.03c3.79,0,7.43,1.35,10.11,3.74l8.04,7.19c2.76,2.46,6.5,3.85,10.4,3.85h69.35c7.9,0,14.3,5.72,14.3,12.78v100.18c0,7.06-6.4,12.78-14.3,12.78h-54.18c-8.55,0-15.48,6.19-15.48,13.83v48.42c0,7.06-6.4,12.78-14.3,12.78h-136.5c-4.94,0-9.67-1.75-13.16-4.87l-30.31-27.09c-2.76-2.46-6.5-3.85-10.4-3.85H82.16c-7.9,0-14.3-5.72-14.3-12.78v-43.75c0-3.49-1.55-6.83-4.31-9.29l-12.78-11.42V46.57c0-3.33,3.03-6.04,6.76-6.04ZM351.25,287.48c-1.77,1.58-4.12,2.45-6.63,2.45H18.33c-3.61,0-6.55-2.63-6.55-5.85v-147.42c0-2.24.97-4.34,2.74-5.92l24.46-21.85v141.15c0,9.14,8.32,16.57,18.54,16.57h317.08l-23.35,20.87Z"/>
      <path class="cls-8" d="M248.18,241.38l-12.04-10.35c-1.1-.94-2.56-1.47-4.08-1.47h-31.73c-3.25,0-5.89,2.35-5.89,5.26v2.73c0,1.43.65,2.8,1.81,3.79l12.11,10.41c1.1.94,2.56,1.47,4.08,1.47h31.66c3.25,0,5.89-2.36,5.89-5.26v-2.78c0-1.43-.65-2.8-1.81-3.79Z"/>
      <path class="cls-8" d="M192.63,241.38l-12.04-10.35c-1.1-.94-2.56-1.47-4.08-1.47h-31.73c-3.25,0-5.89,2.35-5.89,5.26v2.73c0,1.43.65,2.8,1.81,3.79l12.11,10.41c1.1.94,2.56,1.47,4.08,1.47h31.66c3.25,0,5.89-2.36,5.89-5.26v-2.78c0-1.43-.65-2.8-1.81-3.79Z"/>
      <path class="cls-8" d="M136.32,241.38l-12.04-10.35c-1.1-.94-2.56-1.47-4.08-1.47h-31.73c-3.25,0-5.89,2.35-5.89,5.26v2.73c0,1.43.65,2.8,1.81,3.79l12.11,10.41c1.1.94,2.56,1.47,4.08,1.47h31.66c3.25,0,5.89-2.36,5.89-5.26v-2.78c0-1.43-.65-2.8-1.81-3.79Z"/>
      <path class="cls-8" d="M506.68,47.7h-65.45c-3.34,0-6.48-1.16-8.85-3.27l-22.83-20.41c-.77-.69-.77-1.8,0-2.48.77-.69,2.01-.69,2.78,0l22.83,20.41c1.62,1.45,3.78,2.25,6.07,2.25h65.45c2.65,0,4.81-1.93,4.81-4.3v-22.11c0-2.37-2.16-4.3-4.81-4.3h-139.62c-1.95,0-3.79.68-5.17,1.91l-12.57,11.23c-2.29,2.05-5.33,3.17-8.57,3.17h-88.09c-1.09,0-1.96-.79-1.96-1.75s.88-1.75,1.96-1.75h88.09c2.19,0,4.25-.76,5.8-2.15l12.57-11.23c2.12-1.9,4.95-2.94,7.95-2.94h139.62c4.82,0,8.74,3.5,8.74,7.81v22.11c0,4.31-3.92,7.81-8.74,7.81Z"/>
      <g>
        <path class="cls-8" d="M469.35,254.97h-13.12c-6.69,0-12.13-4.86-12.13-10.84v-11.72c0-.97.88-1.75,1.96-1.75s1.96.79,1.96,1.75v11.72c0,4.04,3.68,7.33,8.2,7.33h13.12c1.08,0,1.96.79,1.96,1.75s-.88,1.75-1.96,1.75Z"/>
        <path class="cls-8" d="M504.07,254.97h-13.12c-1.08,0-1.96-.79-1.96-1.75s.88-1.75,1.96-1.75h13.12c4.52,0,8.2-3.29,8.2-7.33v-11.72c0-.97.88-1.75,1.96-1.75s1.96.79,1.96,1.75v11.72c0,5.97-5.44,10.84-12.13,10.84Z"/>
        <path class="cls-8" d="M514.23,214.87c-1.09,0-1.96-.79-1.96-1.75v-11.72c0-4.04-3.68-7.33-8.2-7.33h-13.12c-1.08,0-1.96-.79-1.96-1.75s.88-1.76,1.96-1.76h13.12c6.69,0,12.13,4.86,12.13,10.84v11.72c0,.97-.88,1.75-1.96,1.75Z"/>
        <path class="cls-8" d="M446.07,214.87c-1.08,0-1.96-.79-1.96-1.75v-11.72c0-5.97,5.44-10.84,12.13-10.84h13.12c1.08,0,1.96.79,1.96,1.76s-.88,1.75-1.96,1.75h-13.12c-4.52,0-8.2,3.29-8.2,7.33v11.72c0,.97-.88,1.75-1.96,1.75Z"/>
      </g>
      <path class="cls-8" d="M480.15,233.12c-6.39,0-11.59-4.65-11.59-10.35s5.2-10.35,11.59-10.35,11.59,4.65,11.59,10.35-5.2,10.35-11.59,10.35ZM480.15,215.92c-4.22,0-7.66,3.07-7.66,6.84s3.44,6.84,7.66,6.84,7.66-3.07,7.66-6.84-3.44-6.84-7.66-6.84Z"/>
    </g>
  </g>
</svg>