<?xml version="1.0" encoding="UTF-8"?>
<svg id="Calque_2" xmlns="http://www.w3.org/2000/svg" xmlns:xlink="http://www.w3.org/1999/xlink" viewBox="0 0 239.67 227.61">
  <defs>
    <style>
      .cls-1 {
        fill: url(#linear-gradient);
      }

      .cls-2 {
        fill: #00a8c1;
      }
    </style>
    <linearGradient id="linear-gradient" x1="111.09" y1="131.45" x2="128.59" y2="131.45" gradientUnits="userSpaceOnUse">
      <stop offset="0" stop-color="#005693"/>
      <stop offset="1" stop-color="#00a2c1"/>
    </linearGradient>
  </defs>
  <g id="Layer_1">
    <g>
      <g>
        <path class="cls-2" d="M239.13,202.63l-53.45-92.57,11.17-7.07c1.87-1.18,2.42-3.65,1.24-5.52-1.18-1.87-3.65-2.42-5.52-1.24l-10.9,6.89L123.3,2c-.71-1.24-2.04-2-3.46-2s-2.75.76-3.46,2l-58.58,101.46-11.43-7.23c-1.87-1.18-4.34-.62-5.52,1.24-1.18,1.87-.62,4.34,1.24,5.52l11.7,7.4L.54,202.63c-.71,1.24-.71,2.76,0,4,.71,1.24,2.04,2,3.46,2h111.83v14.98c0,2.21,1.79,4,4,4s4-1.79,4-4v-14.98h111.84c1.43,0,2.75-.76,3.46-2,.71-1.24.71-2.76,0-4ZM123.84,200.63v-12.52c0-2.21-1.79-4-4-4s-4,1.79-4,4v12.52H10.93l49.63-85.96,11.03,6.98c.66.42,1.4.62,2.13.62,1.33,0,2.62-.66,3.38-1.86,1.18-1.87.62-4.34-1.24-5.52l-11.3-7.15L119.84,12l55.08,95.41-11.83,7.48c-1.87,1.18-2.42,3.65-1.24,5.52.76,1.2,2.06,1.86,3.38,1.86.73,0,1.47-.2,2.13-.62l11.56-7.31,49.82,86.29h-104.91Z"/>
        <path class="cls-2" d="M136.56,76.78h-34.33c-2.21,0-4,1.79-4,4s1.79,4,4,4h34.33c2.21,0,4-1.79,4-4s-1.79-4-4-4Z"/>
        <path class="cls-2" d="M175.27,146.06c-1.56-1.56-4.1-1.56-5.66,0l-24.28,24.28c-1.56,1.56-1.56,4.09,0,5.66.78.78,1.8,1.17,2.83,1.17s2.05-.39,2.83-1.17l24.28-24.28c1.56-1.56,1.56-4.09,0-5.66Z"/>
        <path class="cls-2" d="M71,146.06c-1.56-1.56-4.1-1.56-5.66,0-1.56,1.56-1.56,4.09,0,5.66l24.28,24.28c.78.78,1.8,1.17,2.83,1.17s2.05-.39,2.83-1.17c1.56-1.56,1.56-4.09,0-5.66l-24.28-24.28Z"/>
      </g>
      <circle class="cls-1" cx="119.84" cy="131.45" r="8.75"/>
    </g>
  </g>
</svg>