<?xml version="1.0" encoding="UTF-8"?>
<svg id="Calque_2" xmlns="http://www.w3.org/2000/svg" xmlns:xlink="http://www.w3.org/1999/xlink" viewBox="0 0 296.42 248.9">
  <defs>
    <style>
      .cls-1 {
        fill: url(#linear-gradient-3);
      }

      .cls-2 {
        fill: url(#linear-gradient-2);
      }

      .cls-3 {
        fill: url(#linear-gradient);
      }

      .cls-4 {
        fill: #00a8c1;
      }
    </style>
    <linearGradient id="linear-gradient" x1="230" y1="221.36" x2="296.42" y2="221.36" gradientUnits="userSpaceOnUse">
      <stop offset="0" stop-color="#005693"/>
      <stop offset="1" stop-color="#00a2c1"/>
    </linearGradient>
    <linearGradient id="linear-gradient-2" x1="0" x2="66.42" xlink:href="#linear-gradient"/>
    <linearGradient id="linear-gradient-3" x1="115.82" y1="29.05" x2="181.15" y2="29.05" xlink:href="#linear-gradient"/>
  </defs>
  <g id="Layer_1">
    <g>
      <path class="cls-4" d="M264.26,229.53H32.59c-1.43,0-2.75-.76-3.46-2-.71-1.24-.71-2.76,0-4L144.96,22.9c.71-1.24,2.04-2,3.46-2s2.75.76,3.46,2l115.84,200.63c.71,1.24.71,2.76,0,4-.71,1.24-2.04,2-3.46,2ZM39.52,221.53h217.82L148.42,32.9,39.52,221.53Z"/>
      <path class="cls-3" d="M256.29,193.82l26.52,41.93h-52.81l10.13,10.13c1.93,1.93,4.55,3.02,7.29,3.02h30.7c1.41,0,2.76-.56,3.76-1.56l12.99-12.99c1.76-1.76,2.06-4.52.72-6.62l-18.58-29.15c-1.89-2.97-5.17-4.76-8.69-4.76h-12.03Z"/>
      <path class="cls-2" d="M40.13,193.82l-26.52,41.93h52.81l-10.13,10.13c-1.93,1.93-4.55,3.02-7.29,3.02h-30.7c-1.41,0-2.76-.56-3.76-1.56l-12.99-12.99c-1.76-1.76-2.06-4.52-.72-6.62l18.58-29.15c1.89-2.97,5.17-4.76,8.69-4.76h12.03Z"/>
      <path class="cls-1" d="M120.38,57.22l28.21-52.88,29.47,52.51c.83,1.48,3.08.89,3.08-.81v-24.28c0-1.26-.35-2.49-1.01-3.56l-15.43-25.17c-1.16-1.89-3.21-3.04-5.42-3.04h-21.22c-2.23,0-4.3,1.17-5.45,3.08l-15.83,26.27c-.71,1.19-1.05,2.56-.96,3.95l1.45,23.25c.1,1.66,2.31,2.14,3.09.67Z"/>
    </g>
  </g>
</svg>